<svg xmlns="http://www.w3.org/2000/svg" width="58" height="64"><g fill="none" stroke-miterlimit="10"><path d="M0 12h51v19H29v28H0z"/><path d="M1 13v45h27V30h22V13H1m-1-1h51v19H29v28H0V12z" fill="#d7bb77"/></g><g fill="none" stroke-miterlimit="10"><path d="M9.181 0h32.638L51 13H0z"/><path d="M9.7 1L1.93 12h47.14L41.3 1H9.7m-.52-1h32.64L51 13H0L9.181 0z" fill="#d7bb77"/></g><path d="M23.114 0h4.772L29 13h-7z" fill="#d7bb77"/><path fill="#d7bb77" d="M22 12h7v11h-7z"/><g fill="none" stroke="#d7bb77" stroke-miterlimit="10"><path d="M28 30h30v34H28z" stroke="none"/><path d="M28.5 30.5h29v33h-29z"/></g><path d="M33 46.976l1.632 1.977L38.076 45M33 38.976l1.632 1.977L38.076 37M33 54.976l1.632 1.977L38.076 53" fill="none" stroke="#d7bb77" stroke-miterlimit="10"/><path d="M43 55.5h11m-11-8h11m-11-8h11" fill="none" stroke="#d7bb77" stroke-linecap="square" stroke-miterlimit="10"/></svg>