<svg xmlns="http://www.w3.org/2000/svg" width="67.308" height="66.623"><path d="M43.233 66.623c-4.908-4.873-14.25-4.873-19.158 0-1.494-6.753-9.353-11.804-16.121-10.358 2.4-6.488-1.482-14.986-7.954-17.426 5.522-4.165 6.854-13.412 2.727-18.963C9.623 19.358 15.741 12.3 15.272 5.4c6.082 3.29 15.046.658 18.382-5.4 3.336 6.058 12.3 8.69 18.382 5.4-.469 6.9 5.649 13.961 12.546 14.479-4.125 5.551-2.8 14.8 2.726 18.963-6.472 2.437-10.354 10.935-7.954 17.423-6.763-1.446-14.622 3.6-16.117 10.357z" fill="#d7bb77"/><text transform="translate(33.154 45)" font-size="28" font-family="Roboto-Medium, Roboto" font-weight="500"><tspan x="-10.281" y="0">%</tspan></text></svg>