<svg xmlns="http://www.w3.org/2000/svg" width="52" height="62.724"><path fill="#d7bb77" d="M0 13.724h52v16H0zm3 19h46v30H3z"/><path d="M21 13.724h10v49H21z"/><g fill="none" stroke-miterlimit="10"><path d="M26.042 13.224s-19-6-14-12 14 12 14 12z"/><path d="M18.544 6.81c-2.415-3.156-3.76-3.704-4.078-3.794a1.562 1.562 0 00-.25.312c.092.243.722 1.509 4.328 3.481m7.498 6.415s-19-6-14-12C12.756.367 13.552 0 14.392 0c5.037 0 11.65 13.224 11.65 13.224z" fill="#d7bb77"/></g><g fill="none" stroke-miterlimit="10"><path d="M26 13.224s19-6 14-12-14 12-14 12z"/><path d="M33.498 6.81c3.606-1.973 4.236-3.239 4.328-3.482a1.222 1.222 0 00-.13-.183 1.398 1.398 0 00-.12-.128c-.323.091-1.668.643-4.078 3.792M26 13.224S32.613 0 37.65 0c.84 0 1.636.367 2.35 1.224 5 6-14 12-14 12z" fill="#d7bb77"/></g></svg>