<svg xmlns="http://www.w3.org/2000/svg" width="54" height="55"><path d="M1.236 52.379l10.884-.727c9.352-1.315 7.8-9.218 7.8-9.218h.01c0 .166.011.314.011.461.09-17.076 8.34-21.125 11.728-22.072a25.928 25.928 0 012.082-.381l3.343-9.107.653-1.776a12.881 12.881 0 001.588-1.265A29.394 29.394 0 0046.007 0a7.226 7.226 0 01.563 1.36 6.553 6.553 0 01.26 2.948 2.944 2.944 0 01-.146.616s4.4 1.4 4.806 3.048c.044.189.1.384.158.559a4.592 4.592 0 001.587 2.608A2.486 2.486 0 0154 12.346a11.873 11.873 0 01-2.466 3.886 2.171 2.171 0 00-1.417.5 2.391 2.391 0 00-.586.579v.011a3.231 3.231 0 00-.539 1.9 11.6 11.6 0 002.261 6.137 24.944 24.944 0 00-4.817 14.806 22.514 22.514 0 00.305 4.99A28.769 28.769 0 0048 50.72a3.218 3.218 0 001.654 1.793h-.01a7.623 7.623 0 01.934.5 1.136 1.136 0 01.252 1.519 1.012 1.012 0 01-.849.466h-3.229a2.163 2.163 0 01-1.88-1.338l-3.589-9.278s-.98 1.076-1.464 1.684.237 1.09.09 2.51-2.115 3.289-2.115 3.289a16.274 16.274 0 012.037.892 1.178 1.178 0 01.636 1.492 1.09 1.09 0 01-1.031.751h-14.27a4.042 4.042 0 01-3.309-1.665c-.034-.055-.068-.1-.1-.157a14.377 14.377 0 01-4.267 1.4 32.748 32.748 0 01-3.568.393c-.63.029-1.013.029-1.013.029l-.135-.029H2.926c-.675 0-2.926-.579-2.926-1.294a1.277 1.277 0 011.238-1.292" fill="#df2a27"/></svg>