<svg xmlns="http://www.w3.org/2000/svg" width="30.092" height="30.822"><path d="M.689 29.354l6.065-.407c5.211-.737 4.347-5.166 4.347-5.166h.006c0 .093.006.176.006.259.05-9.57 4.648-11.839 6.535-12.369.358-.08.74-.155 1.16-.214l1.863-5.1.364-1a7.185 7.185 0 00.885-.709A16.456 16.456 0 0025.638 0a4.062 4.062 0 01.314.762 3.692 3.692 0 01.148 1.652 1.658 1.658 0 01-.082.345s2.452.786 2.678 1.708c.024.106.056.215.088.314a2.576 2.576 0 00.884 1.462 1.394 1.394 0 01.427.676A6.659 6.659 0 0128.718 9.1a1.205 1.205 0 00-.79.282 1.336 1.336 0 00-.328.318v.006a1.818 1.818 0 00-.3 1.067 6.525 6.525 0 001.26 3.439 14.032 14.032 0 00-2.684 8.3 12.687 12.687 0 00.17 2.8 16.2 16.2 0 00.7 3.115 1.8 1.8 0 00.922 1h-.006a4.24 4.24 0 01.521.279.639.639 0 01.14.851.563.563 0 01-.473.261h-1.8a1.206 1.206 0 01-1.047-.75l-2-5.2s-.546.6-.816.944.132.611.05 1.407a4.234 4.234 0 01-1.179 1.843 9.043 9.043 0 011.135.5.662.662 0 01.354.836.608.608 0 01-.575.421h-7.948a2.248 2.248 0 01-1.844-.933l-.056-.088a7.981 7.981 0 01-2.378.784 18.151 18.151 0 01-1.988.22c-.351.016-.564.016-.564.016l-.075-.016H1.631c-.376 0-1.631-.324-1.631-.725a.714.714 0 01.69-.724" fill="#c1c1c1"/></svg>