<svg xmlns="http://www.w3.org/2000/svg" width="40.092" height="35.822"><path d="M1.13 33.52l5.522-.638c7.69-.851 6.636-5.7 6.636-5.7s1.055-6.833 6.96-9.47c5.695-1.392 5.062-4.011 5.062-4.011s0-4.23 1.374-6.412c2.142-2.961 4.525-4.5 6.1-7.286a6.211 6.211 0 01.516 1.192 5.541 5.541 0 01.238 2.589 2.5 2.5 0 01-.134.541S37.426 5.558 37.8 7c.04.166.093.337.144.491a4.012 4.012 0 001.451 2.291 2.176 2.176 0 01.7 1.06 10.386 10.386 0 01-2.255 3.414 2.035 2.035 0 00-1.3.442 14.852 14.852 0 00-1.591 1.113v.009c-.34.486 1.094 3.926 1.114 4.524.107 1.476-1.476 6.044-1.767 8.042-.191 1.829-.551 2.911 0 4.493.281.708.923.455 1.611.756a7.7 7.7 0 01.845.438.972.972 0 01.231 1.335.935.935 0 01-.776.41h-2.952a1.975 1.975 0 01-1.719-1.175l-.954-6.256s-1.622 1.186-1.757 2.433-1.863 2.247-1.863 2.247a15.2 15.2 0 011.863.783 1.022 1.022 0 01.581 1.31.994.994 0 01-.943.659H17.948a3.747 3.747 0 01-3.025-1.463c-.031-.048-.062-.091-.093-.138a13.524 13.524 0 01-3.9 1.23 15.068 15.068 0 01-2.63.352c-1.648.026-5.624 0-5.624 0C2.058 35.8 0 35.288 0 34.661a1.143 1.143 0 011.132-1.135" fill="#df2a27"/></svg>