<svg xmlns="http://www.w3.org/2000/svg" width="93.092" height="55"><path d="M1.236 52.379l10.884-.727c9.352-1.315 7.8-9.218 7.8-9.218h.01c0 .166.011.314.011.461.09-17.076 8.34-21.125 11.728-22.072a25.928 25.928 0 012.082-.381l3.343-9.107.653-1.776a12.881 12.881 0 001.588-1.265A29.394 29.394 0 0046.007 0a7.226 7.226 0 01.563 1.36 6.553 6.553 0 01.26 2.948 2.944 2.944 0 01-.146.616s4.4 1.4 4.806 3.048c.044.189.1.384.158.559a4.592 4.592 0 001.587 2.608A2.486 2.486 0 0154 12.346a11.873 11.873 0 01-2.466 3.886 2.171 2.171 0 00-1.417.5 2.391 2.391 0 00-.586.579v.011a3.231 3.231 0 00-.539 1.9 11.6 11.6 0 002.261 6.137 24.944 24.944 0 00-4.817 14.806 22.514 22.514 0 00.305 4.99A28.769 28.769 0 0048 50.72a3.218 3.218 0 001.654 1.793h-.01a7.623 7.623 0 01.934.5 1.136 1.136 0 01.252 1.519 1.012 1.012 0 01-.849.466h-3.229a2.163 2.163 0 01-1.88-1.338l-3.589-9.278s-.98 1.076-1.464 1.684.237 1.09.09 2.51-2.115 3.289-2.115 3.289a16.274 16.274 0 012.037.892 1.178 1.178 0 01.636 1.492 1.09 1.09 0 01-1.031.751h-14.27a4.042 4.042 0 01-3.309-1.665c-.034-.055-.068-.1-.1-.157a14.377 14.377 0 01-4.267 1.4 32.748 32.748 0 01-3.568.393c-.63.029-1.013.029-1.013.029l-.135-.029H2.926c-.675 0-2.926-.579-2.926-1.294a1.277 1.277 0 011.238-1.292m52.892.135l5.522-.638c7.69-.851 6.636-5.7 6.636-5.7s1.055-6.833 6.96-9.47c5.695-1.392 5.062-4.011 5.062-4.011s0-4.23 1.374-6.412c2.142-2.961 4.525-4.5 6.1-7.286a6.211 6.211 0 01.516 1.192 5.541 5.541 0 01.238 2.589 2.5 2.5 0 01-.134.541S90.426 24.558 90.8 26c.04.166.093.337.144.491a4.012 4.012 0 001.451 2.291 2.176 2.176 0 01.7 1.06 10.386 10.386 0 01-2.255 3.414 2.035 2.035 0 00-1.3.442 14.852 14.852 0 00-1.591 1.113v.009c-.34.486 1.094 3.926 1.114 4.524.107 1.476-1.476 6.044-1.767 8.042-.191 1.829-.551 2.911 0 4.493.281.708.923.455 1.611.756a7.7 7.7 0 01.845.438.972.972 0 01.231 1.335.935.935 0 01-.776.41h-2.952a1.975 1.975 0 01-1.719-1.175l-.954-6.256s-1.622 1.186-1.757 2.433-1.863 2.247-1.863 2.247a15.2 15.2 0 011.863.783 1.022 1.022 0 01.581 1.31.994.994 0 01-.943.659H70.948a3.747 3.747 0 01-3.025-1.463c-.031-.048-.062-.091-.093-.138a13.524 13.524 0 01-3.9 1.23 15.068 15.068 0 01-2.63.352c-1.648.026-5.624 0-5.624 0-.618 0-2.676-.512-2.676-1.139a1.143 1.143 0 011.132-1.135" fill="#fff"/></svg>