<svg xmlns="http://www.w3.org/2000/svg" width="39.117" height="37.01"><g data-name="Group 20"><path data-name="Path 7 Copy 2" d="M7.7 36.6l-2.79-.016a1 1 0 01-.958-.728l-.424-1.5c-.479-2.9-.838-4.326-.838-4.326a15.569 15.569 0 003.583-3.313c1.373-1.882.572-5.3.572-5.3S3.814 25.038.1 25.038c-.659 0 2.031-1.246 3.462-3.136s1.126-4.484 4.264-6.871c4.505-2.068 15.23-1.031 16.46-4.055C27.559 9.5 26.835 3.5 30.559 3.5c-1-2.5 1.5-3.5 3-3.5s-1 2.5.1 4.072c0 0 2.6.517 2.83 2.573a28.387 28.387 0 012.611 1.93 1.335 1.335 0 01-.4 1.153 2.413 2.413 0 01-2.368 1.248c-1.516 0-3.4-.214-3.4-.214L32.136 19s-2.932 2.544-3.506 4.86a54.229 54.229 0 00-.85 8.8c0 1.335 0 2.472.85 2.472 1.545 0 2.3 1.877 1.573 1.877h-2.53a1 1 0 01-.95-.689l-.781-2.384c-.424-1.494-2.1-7.614-1.653-8.748a34.836 34.836 0 01-4.73-.607c-2.9-.545-6.167-.832-6.167-.832s-.638 3.079-2.715 4.489c-1.511 1.188-3.832 1.188-4.849 2.345s-.437 4.335.445 4.335C7.733 34.919 8.3 36.6 7.7 36.6z" fill="#df2a27"/></g></svg>