<svg xmlns="http://www.w3.org/2000/svg" width="81.633" height="54.9"><g data-name="Group 20"><path data-name="Fill 1" d="M80.971 6.46c-1.361-.421-3.649-.68-4.218-.967a.462.462 0 01-.169-.123 17.976 17.976 0 00-1.209-1.9 6.594 6.594 0 00-3.142-2.455c-.1-.016-.21-.058-.308-.073l-.21-.055a.866.866 0 00-.155-.044l-.172-.05A9.72 9.72 0 0169.442 0a6.357 6.357 0 00-3.1.813c0 .018-.025.029-.033.047a1.224 1.224 0 01-.1.159 10.674 10.674 0 01-2.393 2.332c-.332.261-1.3 1.03-2.451 1.966l-3.54 2.816a.045.045 0 00-.016.016 29.73 29.73 0 01-9.28 5.537q-1.756.4-3.54.654c-2.323.327-4.182.434-4.182.434-2.418.1-6.344.3-9.723.486l-6.807.322h-.052q-1.928.078-3.845.269h-.125c-.468.052-.781.091-.953.125l-.251.047a8.042 8.042 0 00-1.391.45 7.07 7.07 0 00-4.446 6.177v.241a.774.774 0 010 .112C12.036 27.868 7.731 34.466.962 34.908a.056.056 0 01-.054.024 1.38 1.38 0 00-.545.125.63.63 0 00-.289.865.64.64 0 00.147.183l.082.06a.039.039 0 00.025 0 .735.735 0 00.324.112 2.517 2.517 0 00.4.024 16.641 16.641 0 0012.773-5.32 7.827 7.827 0 01-4.509 8.4v-.021c-.112.058-.215.131-.321.188l-4.937 2.458.934 12.083a.918.918 0 00.967.81H10.7c.452 0 .545-.217.545-.348a2.429 2.429 0 00-2.705-2.078 1.82 1.82 0 00-.313.052s-1.65-5.385.885-7.485a28.206 28.206 0 014.681-2.727c.357-.188.741-.374 1.111-.557a40.4 40.4 0 007.375-4.856 17.5 17.5 0 005.446-6.8s4.8-1.963 12.476 2.324 0 0 .016 0a21.627 21.627 0 0011.245 2.118l-.218 12.988.022 1.273.651 2.149.24 3.158a.826.826 0 00.86.787h4.128a.518.518 0 00.575-.447.681.681 0 000-.076 2.251 2.251 0 00-2.456-2h-.065V49.32c0-.6.046-1.273.12-2.016a31.5 31.5 0 012.658-10.24 29.585 29.585 0 016.764-9.4 21.506 21.506 0 01.152-2.68 80.973 80.973 0 011.027-4.235 18.9 18.9 0 016.984-9.082 43.459 43.459 0 007.128-.732 1.867 1.867 0 00.362-.457c0-.021.027-.042.035-.06a1.354 1.354 0 01.1-.154 1.521 1.521 0 00.079-.144.6.6 0 01.049-.091 1.794 1.794 0 01.079-.162l.114-.233a.028.028 0 010-.021c.117-.246.185-.424.185-.424a8.882 8.882 0 00.591-2.031.737.737 0 00-.683-.69" fill="#fff"/></g></svg>