<svg xmlns="http://www.w3.org/2000/svg" width="240" height="230" viewBox="30 40 240 230" preserveAspectRatio="none"><defs><linearGradient id="a" x1=".5" x2=".5" y2="1" gradientUnits="objectBoundingBox"><stop offset="0" stop-color="#1c1c1c"/><stop offset="1"/></linearGradient></defs><g transform="rotate(30 72.265 189.697)" stroke-miterlimit="10" fill="url(#a)"><path d="M120 236.406c-3.418 0-6.79-.903-9.75-2.612L26.327 185.34a19.526 19.526 0 01-7.138-7.137 19.526 19.526 0 01-2.612-9.75V71.547c0-3.418.903-6.79 2.612-9.75a19.526 19.526 0 017.138-7.137L110.25 6.207A19.526 19.526 0 01120 3.594c3.418 0 6.79.903 9.75 2.613l83.923 48.453a19.526 19.526 0 017.138 7.137 19.526 19.526 0 012.612 9.75v96.906c0 3.418-.903 6.79-2.612 9.75a19.526 19.526 0 01-7.138 7.137l-83.923 48.454a19.526 19.526 0 01-9.75 2.612z"/><path d="M120 4.094c-3.33 0-6.616.88-9.5 2.546L26.577 55.093a19.025 19.025 0 00-6.955 6.954 19.025 19.025 0 00-2.545 9.5v96.906c0 3.33.88 6.616 2.545 9.5a19.025 19.025 0 006.955 6.954L110.5 233.36a19.025 19.025 0 009.5 2.546c3.33 0 6.616-.88 9.5-2.546l83.923-48.453a19.026 19.026 0 006.955-6.954 19.025 19.025 0 002.545-9.5V71.547c0-3.33-.88-6.616-2.545-9.5a19.026 19.026 0 00-6.955-6.954L129.5 6.64a19.025 19.025 0 00-9.5-2.546m0-1c3.453 0 6.906.893 10 2.68l83.923 48.453a20 20 0 0110 17.32v96.906a20 20 0 01-10 17.32L130 234.227a19.987 19.987 0 01-10 2.679 19.98 19.98 0 01-10-2.68l-83.923-48.453a20 20 0 01-10-17.32V71.547a20 20 0 0110-17.32L110 5.773a19.987 19.987 0 0110-2.679z" fill="#d7bb77"/></g></svg>