<svg data-name="trash (1)" xmlns="http://www.w3.org/2000/svg" width="15.978" height="17.43"><path d="M15.978 4.358H0V2.905h5.084v-.726A2.184 2.184 0 017.262 0h1.453a2.185 2.185 0 012.179 2.179v.726h5.084v1.452zM7.262 1.453a.728.728 0 00-.726.726v.726h2.905v-.726a.727.727 0 00-.726-.726z" fill="#df2a27"/><path data-name="Shape" d="M11.774 17.43H4.205a2.174 2.174 0 01-2.165-1.939L.883 5.084h14.211l-1.156 10.408a2.174 2.174 0 01-2.164 1.938zm-.878-10.954l-.726 8.715 1.447.121.726-8.715-1.447-.121zm-5.816 0l-1.447.121.726 8.715 1.447-.121zm2.182.06v8.715h1.453V6.537H7.262z" fill="#df2a27"/></svg>