<svg xmlns="http://www.w3.org/2000/svg" width="39.495" height="29.121"><path d="M24.604 29.121c.43-.072.932-.682 1.326-1.651a20.236 20.236 0 001.111-4.882 16.733 16.733 0 01.358-2.082c.036-.215.227-1.3.3-1.621.466-2.477.848-3.979 1.708-5.092a8.993 8.993 0 001.469-8.041 6.016 6.016 0 00-3.477-4.119 7.615 7.615 0 00-6.252.852 1.494 1.494 0 01-1.453 0 7.191 7.191 0 00-4.268-1.364 7.024 7.024 0 00-4.05 1.256C9.19 3.71 8.226 6.829 8.226 8.48c0 1.759 1.337 3.949 2.484 5.313a42.21 42.21 0 011.332 5.092c.072.323.234 1.37.27 1.585.143.646.251 1.364.358 2.118a17.31 17.31 0 001.111 4.846c.251.61.753 1.579 1.326 1.687h.036c.143-.108.609-.538 1.326-2.513l1.864-5.923c0-.036 0-.036.036-.072a1.641 1.641 0 013.082 0c0 .036 0 .036.036.072l1.756 5.923a6.031 6.031 0 001.361 2.513z" fill="#df2a27"/><path d="M33.729 2.968L36.013.707m-2.477 11.61l2.614 2.434m-.495-7.157h3.34M5.767 2.968L3.483.707m2.477 11.61l-2.614 2.434m.495-7.157H.501" fill="none" stroke="#df2a27" stroke-linecap="round" stroke-linejoin="round" stroke-miterlimit="10"/></svg>