<svg xmlns="http://www.w3.org/2000/svg" width="29.236" height="23.997"><path d="M11.488 23.997H5.404a2 2 0 01-2-2V15.18a6.017 6.017 0 012.476-4.856l6.303-4.572a4 4 0 014.737.028l6.107 4.543a6.026 6.026 0 012.419 4.814v6.861a2 2 0 01-2 2h-5.748a2.032 2.032 0 00.014-.235V17.57a2 2 0 00-2-2h-2.237a2 2 0 00-2 2v6.191a2.026 2.026 0 00.014.235zM.11 11.062L14.72.056a.277.277 0 01.388.055l.5.664a.277.277 0 01-.055.388L.944 12.168a.277.277 0 01-.388-.055l-.5-.664a.277.277 0 01.054-.387z" fill="#df2a27"/><path d="M29.126 11.062a.277.277 0 01.055.388l-.5.664a.277.277 0 01-.388.055L13.682 1.162a.277.277 0 01-.054-.388l.5-.664a.277.277 0 01.388-.054z" fill="#df2a27"/></svg>