<svg xmlns="http://www.w3.org/2000/svg" width="18" height="18"><path d="M10.055 18h-2.11a.525.525 0 01-.5-.361l-.711-2.169a6.855 6.855 0 01-.706-.293l-2.012 1.007a.527.527 0 01-.609-.1l-1.492-1.49a.53.53 0 01-.1-.609l1.007-2.012a6.856 6.856 0 01-.293-.706l-2.168-.712a.527.527 0 01-.361-.5v-2.11a.527.527 0 01.361-.5l2.169-.711a6.855 6.855 0 01.293-.706L1.816 4.016a.53.53 0 01.1-.609l1.491-1.492a.524.524 0 01.373-.154.535.535 0 01.236.055l2.012 1.007a6.856 6.856 0 01.706-.293L7.445.361a.527.527 0 01.5-.361h2.11a.525.525 0 01.5.361l.712 2.169a6.855 6.855 0 01.706.293l2.012-1.007a.536.536 0 01.236-.055.526.526 0 01.373.154l1.491 1.491a.53.53 0 01.1.609l-1.008 2.013a6.856 6.856 0 01.293.706l2.169.711a.527.527 0 01.361.5v2.11a.525.525 0 01-.361.5l-2.169.712a6.855 6.855 0 01-.293.706l1.007 2.012a.53.53 0 01-.1.609l-1.491 1.491a.53.53 0 01-.609.1l-2.012-1.007a6.856 6.856 0 01-.706.293l-.711 2.169a.527.527 0 01-.5.36zM9 5.308A3.692 3.692 0 1012.692 9 3.7 3.7 0 009 5.308z" fill="#fff"/></svg>