<svg width="40" height="40" xmlns="http://www.w3.org/2000/svg"><path d="M4.758 22.167V26.5c-1.247 0-2.258-.97-2.258-2.167 0-1.196 1.011-2.166 2.258-2.166zm22.35-1.354l2.353 4.033c-1.108.999-2.408 1.582-3.928 1.648V22.14c.505-.092.957-.454 1.575-1.328zm-2.479 1.295v4.369a7.122 7.122 0 01-3.732-1.399l2.254-3.866c.537.524.98.789 1.478.896zm-17.47-.653l2.229 3.819c-1.073.69-2.26 1.082-3.726 1.193V22.1a3.343 3.343 0 001.498-.644zm2.97-3.364l2.387 4.097a82.57 82.57 0 01-.155.199c-.73.93-1.436 1.698-2.18 2.307l-2.28-3.91c.267-.282.547-.615.852-1.004l.502-.644c.299-.381.588-.73.874-1.045zm11.585 1.462l.17.211c.205.258.396.49.574.698l-2.329 3.99c-.559-.51-1.078-1.11-1.829-2.05l-.168-.21a33.7 33.7 0 00-.282-.348l2.351-4.029c.449.44.9.97 1.513 1.738zm7.517-2.213l2.869 3.912-.057.102c-.789 1.355-1.26 2.08-1.871 2.77l-2.44-4.182-.084.05c.19-.306.395-.652.62-1.041l.002-.004c.378-.655.684-1.172.961-1.607zm-14.538-1.657v4.389c-.46.139-.88.503-1.525 1.29l-2.329-3.994c1.13-1.043 2.286-1.587 3.854-1.685zm4.652 1.392l.106.083-2.278 3.906c-.625-.666-1.07-.952-1.576-1.036v-4.352c1.41.072 2.647.56 3.748 1.399zM35.242 13.5c1.247 0 2.258.97 2.258 2.167 0 1.196-1.011 2.166-2.258 2.166-.821 0-1.418.534-2.6 2.497l-2.822-3.847c.25-.334.503-.628.796-.933 1.26-1.31 2.785-2.05 4.626-2.05z" fill="#DF2A27"/></svg>