<svg xmlns="http://www.w3.org/2000/svg" width="34.695" height="34.955"><circle cx=".324" cy=".324" r=".324" transform="translate(21.183 34.306)" fill="#df2a27"/><circle cx=".324" cy=".324" r=".324" transform="translate(13.183 34.194)" fill="#df2a27"/><path d="M22.824 8.477C24.74 4.121 31.443-.565 33.399.056s2.106 15.475-2.445 18.644c-.971.489-1.634-3.074-3.218-5.763-1.062-1.808-5.363-3.364-4.912-4.46zm-10.953 0S3.252-.564 1.296.056-.809 15.531 3.741 18.697a3.673 3.673 0 00.852.451c1.165.418-.471-2.676 1.383-5.558a15.968 15.968 0 015.895-5.113z" fill="#df2a27"/><path d="M21.727 34.836s11.916-8.506 9.476-18.523c-2.292-8.536-8.379-7.836-8.379-7.836a12.644 12.644 0 00-5.081-1.056 12.55 12.55 0 00-5.873 1.056c-5.894 2.681-9.092-.304-8.6 7.836-.38 3.484-.145 10.887 10.189 18.529l.268-.536s-9.57-8.536-8.4-15.571S10.77 8.487 17.743 8.487s11.738 6.4 12.079 9.686.341 8.5-8.418 16.133c.098-.078.323.53.323.53z" fill="#df2a27"/></svg>