<svg width="26" height="26" xmlns="http://www.w3.org/2000/svg"><path d="M2.686 23.314c3.51 3.509 9.214 3.515 12.715.013 3.112-3.112 3.451-7.961 1.026-11.466l5.81-5.81-.324 4.18c-.069.883.553 1.554 1.41 1.56l.146-.004c.882-.07 1.66-.803 1.8-1.673l.018-.146.65-8.35c.068-.882-.553-1.553-1.41-1.56l-.146.005-8.35.65c-.931.073-1.745.887-1.818 1.818-.068.883.553 1.555 1.41 1.561l.146-.005 4.18-.325-5.81 5.811c-3.432-2.374-8.153-2.099-11.27.835l-.196.191c-3.502 3.502-3.496 9.206.013 12.715zM4.97 21.03c-2.248-2.247-2.251-5.9-.009-8.143 2.243-2.242 5.896-2.238 8.143.01 2.248 2.247 2.252 5.9.009 8.142-2.243 2.243-5.896 2.239-8.143-.009z" fill="#DF2A27" fill-rule="evenodd"/></svg>