<svg width="40" height="40" xmlns="http://www.w3.org/2000/svg"><g fill="none" fill-rule="evenodd"><path d="M16.72 7.717h7a3 3 0 013 3v2a3 3 0 01-3 3h-7a3 3 0 01-3-3v-2a3 3 0 013-3z" stroke="#DF2A27" stroke-width="2"/><path d="M31.72 12.717a3 3 0 013 3v13a3 3 0 01-3 3h-23a3 3 0 01-3-3v-13a3 3 0 013-3h23zm-11.5 3.234a1.96 1.96 0 00-1.96 1.96v2.486l-3.527.001c-.4 0-.73.309-.778.707l-.006.102v2.425a.8.8 0 00.685.802l.099.007h3.526v2.487c0 1.033.8 1.88 1.814 1.954l.146.006a1.96 1.96 0 001.96-1.96V24.44h3.527c.4 0 .729-.308.777-.706l.006-.102v-2.425a.796.796 0 00-.783-.809h-3.528V17.91c0-1.033-.799-1.88-1.813-1.954z" fill="#DF2A27"/></g></svg>