<svg xmlns="http://www.w3.org/2000/svg" width="14" height="13"><path d="M1 7v5.143a.846.846 0 00.833.857H6V7zm5.125-1H.437A.434.434 0 010 5.57V4.281a.868.868 0 01.875-.86h2.768a3.427 3.427 0 01-.489-.384 1.776 1.776 0 010-2.529 1.875 1.875 0 012.566 0 4.724 4.724 0 011.249 2.914h.063A4.707 4.707 0 018.278.508a1.874 1.874 0 012.567 0 1.775 1.775 0 010 2.529 3.412 3.412 0 01-.489.384h2.768a.869.869 0 01.876.86V5.57a.435.435 0 01-.438.43H7.875V4.281h-1.75V6zM9.561.852a.945.945 0 00-.663.263c-.59.583-1.175 2.072-.972 2.279a.281.281 0 00.161.029 4.334 4.334 0 002.137-.991.923.923 0 000-1.317.947.947 0 00-.663-.263zM4.439.843a.943.943 0 00-.663.271.926.926 0 000 1.317 4.333 4.333 0 002.136.991.289.289 0 00.162-.029c.2-.206-.382-1.7-.972-2.279a.938.938 0 00-.663-.271zM8 7v6h4.167a.846.846 0 00.833-.857V7z" fill="#df2a27"/></svg>