<svg xmlns="http://www.w3.org/2000/svg" width="72.945" height="92.344"><g transform="rotate(30 21.75 81.172)" fill="#df2a27"><path d="M11.833 41.164a2.61 2.61 0 012.516-3.064h6.108a2.61 2.61 0 012.516 3.064L21.775 48.7l1.237 8.38a2.609 2.609 0 01-2.521 3.034h-6.176a2.609 2.609 0 01-2.521-3.035l1.237-8.379zm4.317-13.043h2.55v6.152h-2.55z"/><ellipse cx="1.275" cy="1.318" rx="1.275" ry="1.318" transform="translate(16.15 26.364)"/><path d="M17.364 36.35c2.076 0 3.886 2.2 3.886-1.2s-1.81-6.228-3.886-6.228-3.764 3-3.764 6.23 1.688 1.198 3.764 1.198z"/><rect width="11.05" height="2.636" rx="1.318" transform="translate(11.9 34.273)"/></g></svg>