<svg width="40" height="40" xmlns="http://www.w3.org/2000/svg"><g transform="translate(2.5 15)" fill="#DF2A27" fill-rule="evenodd"><ellipse cx="17.5" cy="10" rx="17.5" ry="2"/><path d="M31.32 1.924L35 9.868H0l3.68-7.944c.663.357 2.048.563 4.183.75 2.55.225 5.98.352 9.637.352s7.087-.127 9.637-.351c2.135-.188 3.52-.394 4.184-.751z"/><path d="M7.86 1.563c2.556.26 6.03.41 9.74.41s7.183-.15 9.738-.41c1.098-.112 1.992-.241 2.63-.379-.638-.137-1.532-.267-2.63-.379-2.555-.26-6.029-.41-9.739-.41-3.71 0-7.183.15-9.74.41-1.096.112-1.99.242-2.63.38.64.137 1.534.266 2.63.378z"/></g></svg>