<svg xmlns="http://www.w3.org/2000/svg" width="80.292" height="93.799"><g transform="rotate(-35.02 31.81 10.03)" fill="#df2a27"><path d="M14 32h7v18.5a3.5 3.5 0 01-3.5 3.5 3.5 3.5 0 01-3.5-3.5V32zm1-5h5v3h-5z"/><rect width="3" height="5" rx="1.5" transform="translate(16 51)"/><path d="M17.5 53a.473.473 0 01.5.44v10.12a.473.473 0 01-.5.44.473.473 0 01-.5-.44V53.44a.473.473 0 01.5-.44z"/><rect width="17" height="1" rx=".5" transform="translate(9 32)"/><rect width="9" height="1" rx=".5" transform="translate(13 26)"/></g></svg>