<svg data-name="Group 16" xmlns="http://www.w3.org/2000/svg" width="50" height="50"><path data-name="Path 7" d="M4.689 15.975a5.046 5.046 0 012.053.264c1.086.38 4.13 2.494 6.224 2.737a67.917 67.917 0 007.009.151c1.994 0 5 .719 7.275.212s6.5-2.648 8.339-5.7a8.406 8.406 0 011.119-1.877 3.989 3.989 0 013.281-1.226 2.674 2.674 0 011.764.833c.044.131 2.759-.359 3.114-.359s.842 1.8-.113 2.75c-.756.783-3.182 2.15-3.69 3.683s-.828 4.349-2.256 5.839a5.643 5.643 0 01-.754 3.04c-.879 1.3-3.605 2.918-3.605 3.247s-1.047 4.747.606 7.321c.055.123.238-.174 1.384 0s1.013 2.023 0 2.069c-.451-.022-2.358-.046-2.358-.046a2.7 2.7 0 01-.641-1.364c-.2-.95-1.4-2.688-1.935-6.184-.124-.015-3.557 2.367-13.661-.258a44.1 44.1 0 00-4.13 3.13 5.424 5.424 0 00-1.1 3.546c.2.2.963-.224 1.562.273a.783.783 0 01-.461 1.444H11.64a3.446 3.446 0 01-.5-2.332 30.062 30.062 0 000-3.642s1.817-2.514 2.2-2.853-1.893-5.254.637-8.747c-.014-.036-3.221.3-6.745-2.949a9.4 9.4 0 01-2.543-3.002z" fill="#df2a27"/></svg>