<svg xmlns="http://www.w3.org/2000/svg" viewBox="0 0 496.94 496.94"><g fill="#e2bc74"><path d="M475.3 106.92l-12.05-3.76c-3.01-.75-6.02-1.51-9.79-1.51-13.55 0-25.6 9.04-30.12 21.83l-6.78 20.33V128c0-2.26-1.51-4.52-3.01-6.02L290.08 2.26C288.57.75 286.31 0 284.8 0H43.11c-4.52 0-7.53 3.01-7.53 7.53v23.34H7.72C3.2 30.87.19 33.88.19 38.4v451.01c0 4.52 3.01 7.53 7.53 7.53h365.93c4.52 0 7.53-3.01 7.53-7.53v-23.34h27.86c4.52 0 7.53-3.01 7.53-7.53V356.89l21.08-28.61.75-2.26 56.47-179.95c6.03-16.56-3.01-33.88-19.57-39.15zM292.33 25.6l98.64 94.87h-98.64V25.6zm73.79 456.28H15.25V45.93h20.33v412.61c0 4.52 3.01 7.53 7.53 7.53h323.01v15.81zm36.14-30.87H50.64V15.06h226.63V128c0 4.52 3.01 7.53 7.53 7.53h117.46V192l-35.39 111.43v2.26l1.51 95.62c0 3.01 2.26 6.02 5.27 6.78 3.01.75 6.78 0 8.28-3.01l20.33-27.11v73.04zm-19.57-73.03l-1.51-62.49 37.65 12.05-36.14 50.44zm98.63-236.43l-54.21 172.42-43.67-14.31L437.65 128c3.01-8.28 12.05-13.55 20.33-10.54l12.05 3.76c9.03 2.26 14.3 12.05 11.29 20.33z"/><path d="M101.84 135.53h108.42c4.52 0 7.53-3.01 7.53-7.53V51.2c0-4.52-3.01-7.53-7.53-7.53H101.84c-4.52 0-7.53 3.01-7.53 7.53V128c0 3.76 3.77 7.53 7.53 7.53zm7.53-76.8h93.36v61.74h-93.36V58.73zM86.78 206.31h228.89c4.52 0 7.53-3.01 7.53-7.53 0-4.52-3.01-7.53-7.53-7.53H86.78c-4.52 0-7.53 3.01-7.53 7.53 0 4.51 3.01 7.53 7.53 7.53zm0 54.96h228.89c4.52 0 7.53-3.01 7.53-7.53s-3.01-7.53-7.53-7.53H86.78c-4.52 0-7.53 3.01-7.53 7.53s3.01 7.53 7.53 7.53zm0 54.96h228.89c4.52 0 7.53-3.01 7.53-7.53s-3.01-7.53-7.53-7.53H86.78c-4.52 0-7.53 3.01-7.53 7.53s3.01 7.53 7.53 7.53zm235.67 47.44c0-4.52-3.01-7.53-7.53-7.53H86.78c-4.52 0-7.53 3.01-7.53 7.53s3.01 7.53 7.53 7.53h228.89c3.77 0 6.78-3.77 6.78-7.53zm24.85 47.44H233.6c-4.52 0-7.53 3.01-7.53 7.53s3.01 7.53 7.53 7.53h112.94c4.52 0 7.53-3.01 7.53-7.53s-3.01-7.53-6.77-7.53z"/></g></svg>