<svg xmlns="http://www.w3.org/2000/svg" viewBox="0 0 49.64 49.64"><path fill="#e2bc74" d="M44.12 11.85l-.03-.03a.426.426 0 00-.11-.12.138.138 0 00-.04-.03.65.65 0 00-.22-.11L23.07 6.72a.781.781 0 00-.34.01L8 11.57c-.04.02-.07.04-.11.06-.02.01-.05.02-.07.03-.01.01-.01.01-.01.02-.01.01-.02.01-.02.01L.22 18.5c-.22.2-.27.53-.12.79.11.19.32.3.54.3.08 0 .15-.01.22-.04l6.73-2.51V37.2c0 .29.19.53.47.6L28 42.91a.645.645 0 00.36-.01l14.93-5.09c.25-.08.42-.32.42-.59V24.16l5.5-1.9c.18-.06.31-.2.38-.37s.05-.37-.04-.53l-5.43-9.51zM7.57 15.72l-4.09 1.52 4.09-3.68v2.16zm19.96 25.79L8.82 36.73V12.98l18.71 5.01v23.52zm.61-24.65L10.39 12.1l12.57-4.12 18.38 4.3-13.2 4.58zm14.33 19.91l-13.69 4.67V18.82l5.61 8.09c.12.17.31.27.51.27.06 0 .13-.01.21-.03l7.36-2.55v12.17zM35.15 25.8l-5.62-8.1 13.76-4.77 4.81 8.39-12.95 4.48z"/><path d="M15.56 26.03c-1.14-.29-1.97-1.79-1.86-3.35.11-1.56 1.14-2.59 2.28-2.3 1.14.29 1.97 1.79 1.86 3.35-.12 1.56-1.14 2.59-2.28 2.3zm.38-5.2c-.91-.23-1.72.65-1.82 1.96-.1 1.31.56 2.57 1.47 2.8.91.23 1.72-.65 1.82-1.96.1-1.32-.56-2.57-1.47-2.8zm4.39 14.71c-.56-.14-1.01-.59-1.5-1.07a9.07 9.07 0 00-.92-.83c-.05-.02-.25-.1-.56-.18-.28-.07-.42-.08-.44-.08-.35.06-.7.19-1.04.32-.58.21-1.07.4-1.63.26-.28-.07-.54-.22-.77-.45-.55-.54-.84-1.3-.82-2.14.02-.77.31-1.54.81-2.15.05-.06.11-.12.17-.17.02-.02.07-.06.08-.07.61-1 2.02-1.88 4.13-1.35l.08.02c2.14.58 3.38 2.19 3.78 3.41a.9.9 0 00.07.14c.06.1.1.19.14.28.76 1.84.38 3.66-.84 4.06-.25.05-.49.06-.74 0zm-2.95-2.53c.31.08.6.18.7.24.39.29.7.6 1.01.9.44.43.84.84 1.28.95.18.04.35.04.52-.02 1.01-.33 1.3-1.9.64-3.49-.03-.07-.07-.14-.11-.23-.05-.09-.09-.16-.11-.24-.36-1.08-1.48-2.53-3.42-3.05l-.08-.02c-1.92-.49-3.18.3-3.73 1.2-.03.05-.08.09-.14.15a.8.8 0 00-.13.13c-.45.55-.71 1.23-.73 1.91-.02.7.21 1.32.65 1.74.17.16.35.27.55.32.43.11.88-.06 1.39-.25.36-.13.72-.27 1.13-.34.09-.01.31.03.58.1zm2.85-5.79c-1.14-.29-1.97-1.79-1.86-3.35.11-1.56 1.14-2.59 2.28-2.3 1.14.29 1.97 1.79 1.86 3.35-.12 1.55-1.14 2.58-2.28 2.3zm.38-5.21c-.91-.23-1.72.65-1.82 1.96-.1 1.31.56 2.57 1.47 2.8.91.23 1.72-.65 1.82-1.96.1-1.31-.56-2.57-1.47-2.8zm2.91 9.69c-1.07-.27-1.83-1.62-1.72-3.06.11-1.45 1.03-2.36 2.11-2.09 1.07.27 1.83 1.62 1.73 3.06-.12 1.45-1.04 2.37-2.12 2.09zm.35-4.71c-.84-.21-1.56.56-1.65 1.76-.09 1.2.5 2.3 1.33 2.51.84.21 1.56-.56 1.65-1.76.09-1.19-.49-2.3-1.33-2.51zM12 28.78c-1.07-.27-1.83-1.62-1.73-3.06.11-1.45 1.03-2.36 2.11-2.09 1.07.27 1.83 1.62 1.73 3.06-.11 1.45-1.03 2.37-2.11 2.09zm.35-4.71c-.84-.21-1.56.56-1.65 1.76-.09 1.2.5 2.3 1.33 2.51.84.21 1.56-.56 1.65-1.76.09-1.19-.49-2.3-1.33-2.51z" fill="#e2bc74"/></svg>