<svg xmlns="http://www.w3.org/2000/svg" viewBox="0 0 483 483"><path fill="#e2bc74" d="M211.49 109.5c2.52 0 4.9-1.19 6.41-3.21a7.992 7.992 0 001.26-7.06 140.912 140.912 0 00-29.05-53.06 44.521 44.521 0 00-42.27-12.94c-2.12.81-3.8 2.49-4.61 4.62-.44 1.2-.77 2.43-.98 3.69-.25 1.49-.38 3-.4 4.51v.13c.1 12.76 5.24 24.96 14.3 33.94a141 141 0 0053.04 29.03c.75.22 1.52.34 2.3.35zM167.5 68.79a33.002 33.002 0 01-7.33-11.16v-.08c-.35-.89-.66-1.78-.92-2.63-.14-.46-.23-.9-.35-1.36-.12-.46-.23-.8-.3-1.2-.08-.4-.1-.56-.15-.85-.23-1.2-.4-2.4-.49-3.62 7.89.6 15.3 4 20.89 9.6 7.95 8.99 14.36 19.24 18.97 30.33a108.751 108.751 0 01-30.36-19.03h.04z"/><path fill="#e2bc74" d="M457 115.02H333.52a112.21 112.21 0 0014.98-12.26c28.62-28.7 29.55-72.22 11.27-90.5S297.99-5.1 269.26 23.55a156.96 156.96 0 00-28.25 43.35 156.752 156.752 0 00-28.27-43.37c-28.7-28.62-72.21-29.55-90.5-11.27-18.29 18.28-17.34 61.8 11.28 90.51 4.63 4.51 9.65 8.62 14.98 12.26H25.02c-4.42 0-8 3.58-8 8v80c0 4.42 3.58 8 8 8h16V443c.03 22.08 17.92 39.97 40 40H401c22.08-.03 39.97-17.92 40-40V211.02h16c4.42 0 8-3.58 8-8v-80c0-4.42-3.58-8-8-8zM280.58 34.85c22.99-22.92 56.52-22.66 67.89-11.29s11.64 44.88-11.28 67.88c-10.5 9.7-22.48 17.66-35.49 23.58h-47.8v-.52c0-1.82-.14-3.67-.31-5.53-.07-.61-.14-1.22-.21-1.85a78.06 78.06 0 00-.68-4.59c-.09-.54-.18-1.07-.27-1.6-.38-1.99-.8-3.95-1.28-5.85-.06-.27-.14-.51-.2-.8-.43-1.66-.86-3.2-1.31-4.8-.06-.22-.12-.46-.18-.68a152.34 152.34 0 0131.12-53.95zm-7.57 160.17h-64v-64h64v64zM144.84 91.45c-22.92-23-22.66-56.52-11.28-67.89 11.37-11.37 44.88-11.64 67.87 11.27a153.76 153.76 0 0132 56.39c.9 2.81 1.6 5.5 2.25 8.12.18.75.34 1.48.5 2.21.43 1.95.78 3.82 1.04 5.6.09.61.2 1.23.27 1.82.25 2 .39 4.01.41 6.02h-57.57a134.088 134.088 0 01-35.49-23.54zM33.02 131.02h159.99v64H33.02v-64zm24 311.98V211.02h151.99V467H81.02c-13.25 0-24-10.74-24-24zm167.99 24V211.02h32V467h-32zM425 443c0 13.25-10.74 24-24 24H273.01V211.02H425V443zm24-247.98H289.01v-64H449v64z"/><path fill="#e2bc74" d="M270.51 109.53c.77 0 1.54-.11 2.27-.33 19.59-5.73 37.7-15.65 53.08-29.09a45.278 45.278 0 0012.96-42.29 7.934 7.934 0 00-4.6-4.6 45.27 45.27 0 00-42.29 12.96 140.655 140.655 0 00-29.09 53.08 8.023 8.023 0 001.26 7.06 8.023 8.023 0 006.41 3.21zm32.72-52.04c5.6-5.59 13.02-9 20.91-9.6-.6 7.89-4 15.32-9.6 20.92-9 8.01-19.28 14.45-30.4 19.07 4.63-11.13 11.08-21.4 19.09-30.39z"/></svg>