<svg xmlns="http://www.w3.org/2000/svg" viewBox="0 0 64 64"><path d="M64 29.7c0-3.58-2.92-6.5-6.5-6.5h-5.26L40.46 2.81c-.53-.92-1.4-1.59-2.43-1.86S35.92.81 35 1.34a3.96 3.96 0 00-1.86 2.43 3.99 3.99 0 00.39 3.04L43 23.2H21l9.46-16.39c.53-.93.68-2 .4-3.04A3.987 3.987 0 0029 1.34c-.92-.54-2-.68-3.03-.4-1.03.28-1.9.94-2.43 1.86L11.76 23.2H6.5c-3.58 0-6.5 2.92-6.5 6.5a6.49 6.49 0 004.07 6.02L7.5 58.93c.36 2.43 2.49 4.27 4.95 4.27h38.22c2.41 0 4.48-1.72 4.92-4.09l4.33-23.38c2.39-.97 4.08-3.3 4.08-6.03zM35.07 4.29c.14-.52.47-.95.93-1.21a1.976 1.976 0 011.52-.2c.52.14.95.47 1.21.93l12 20.78c.27.46.34 1 .2 1.52s-.47.95-.93 1.21c-.46.27-1 .34-1.52.2a1.96 1.96 0 01-1.21-.93l-12-20.78a1.98 1.98 0 01-.2-1.52zm-21.8 20.3l12-20.78c.27-.46.7-.79 1.21-.93.17-.05.35-.08.52-.08.35 0 .69.09 1 .27.46.27.79.7.93 1.21s.07 1.05-.2 1.52l-12 20.78c-.27.46-.7.79-1.21.93-.52.14-1.06.07-1.52-.2-.46-.27-.79-.7-.93-1.21a1.95 1.95 0 01.2-1.51zM57.8 36.2l-4.17 22.55a2.993 2.993 0 01-2.95 2.45H12.45c-1.48 0-2.75-1.1-2.97-2.56L6.16 36.2H57.8zm-.3-2h-51c-2.48 0-4.5-2.02-4.5-4.5s2.02-4.5 4.5-4.5h4.53c-.05.47-.02.95.11 1.43.28 1.03.94 1.9 1.86 2.43a3.943 3.943 0 003.03.4c1.03-.28 1.9-.94 2.43-1.86l1.38-2.39h24.31l1.38 2.39c.53.92 1.4 1.59 2.43 1.86a3.916 3.916 0 003.03-.4 3.96 3.96 0 001.86-2.43c.13-.47.15-.95.11-1.43h4.53c2.48 0 4.5 2.02 4.5 4.5s-2.01 4.5-4.49 4.5z"/><path d="M17 56.2c1.65 0 3-1.35 3-3v-10c0-1.65-1.35-3-3-3s-3 1.35-3 3v10c0 1.65 1.35 3 3 3zm-1-13c0-.55.45-1 1-1s1 .45 1 1v10c0 .55-.45 1-1 1s-1-.45-1-1v-10zm11 13c1.65 0 3-1.35 3-3v-10c0-1.65-1.35-3-3-3s-3 1.35-3 3v10c0 1.65 1.35 3 3 3zm-1-13c0-.55.45-1 1-1s1 .45 1 1v10c0 .55-.45 1-1 1s-1-.45-1-1v-10zm11 13c1.65 0 3-1.35 3-3v-10c0-1.65-1.35-3-3-3s-3 1.35-3 3v10c0 1.65 1.35 3 3 3zm-1-13c0-.55.45-1 1-1s1 .45 1 1v10c0 .55-.45 1-1 1s-1-.45-1-1v-10zm11 13c1.65 0 3-1.35 3-3v-10c0-1.65-1.35-3-3-3s-3 1.35-3 3v10c0 1.65 1.35 3 3 3zm-1-13c0-.55.45-1 1-1s1 .45 1 1v10c0 .55-.45 1-1 1s-1-.45-1-1v-10z"/></svg>