<svg xmlns="http://www.w3.org/2000/svg" viewBox="10 0 30 50"><g fill="#e2bc74"><path d="M24 12c1.4 0 14-.1 14-4V4c0-3.9-12.6-4-14-4S10 .1 10 4v4c0 3.9 12.6 4 14 4zM12 7.9V6.3c.3.1.6.3 1 .4v1.9c-.5-.3-.9-.5-1-.7zM22 8v2c-1.1 0-2.1-.1-3-.2v-2c1.1.1 2.1.1 3 .2zm-5 1.5c-.7-.1-1.4-.2-2-.4V7.2c.6.1 1.3.2 2 .3v2zm7 .5V8c1.1 0 8.4-.1 12-1.7V8c-.5.7-4.9 2-12 2zm1.3-8h4c.2 0 .4 0 .6.1.2 0 .3 0 .4.1.2 0 .3 0 .5.1.1 0 .3 0 .4.1.2 0 .3 0 .5.1.1 0 .3 0 .4.1.1 0 .3.1.4.1.1 0 .2.1.4.1.1 0 .3.1.4.1.1 0 .2.1.3.1s.2.1.3.1.2.1.3.1.2.1.3.1.2.1.2.1c.1 0 .2.1.2.1.1 0 .1.1.2.1s.1.1.2.1.1.1.2.1.1.1.2.1l.1.1.1.1.1.1c-.7.8-5 2-11.9 2S12.9 5 12.2 4.2c0 0 .1 0 .1-.1l.1-.1s.1 0 .1-.1c0 0 .1-.1.2-.1s.1-.1.2-.1.1-.1.2-.1.1-.1.2-.1.2-.1.3-.1.2-.1.2-.1c.1 0 .2-.1.3-.1s.2-.1.3-.1c-.1-.1.1-.1.2-.1s.2-.1.3-.1.2-.1.4-.1c.1 0 .2-.1.4-.1.1 0 .3-.1.4-.1s.3 0 .4-.1c.1 0 .3 0 .5-.1.1 0 .3 0 .4-.1.2 0 .3 0 .5-.1.1 0 .3 0 .4-.1.2 0 .4 0 .6-.1h6.4z"/><path d="M16.5 25.8c3.7 0 7.9-.8 8.7-.9 1.4-.3 13.7-2.8 13-6.6l-.8-3.9c-.8-3.8-13.1-1.5-14.5-1.2-2.2.4-4.2 1-6.1 1.6-1.1.4-2.1.7-3 1.1-2.9 1.3-4.2 2.6-3.9 3.9l.8 3.9c.3 1.6 2.9 2.1 5.8 2.1zm-4.2-4.2c.3.1.7.1 1.1.2l.4 1.8c-.6-.1-.9-.2-1.1-.4l-.4-1.6zm-.3-2.4l.1-.1.1-.1.1-.1.1-.1c.1 0 .1-.1.2-.1s.1-.1.2-.1.1-.1.2-.1.1-.1.2-.1.2-.1.3-.1.2-.1.3-.1.2-.1.3-.1.2-.1.3-.1.2-.1.3-.1.2-.1.3-.1c.1-.1.3-.1.4-.2.1-.1.2-.1.4-.2.1-.1.3-.1.4-.2s.3-.1.4-.2.3-.1.4-.2c.2-.1.3-.1.5-.2.2 0 .3-.1.5-.1.2-.1.3-.1.5-.2.2 0 .3-.1.5-.1.2-.1.4-.1.6-.2.2 0 .3-.1.5-.1.2-.1.4-.1.6-.2.1 0 .3-.1.4-.1.2-.1.5-.1.7-.2h.1c.4-.1.7-.2 1.1-.2.4-.1.9-.2 1.3-.2h.3c.3-.1.6-.1.9-.1.1 0 .2 0 .4-.1.3 0 .5-.1.8-.1h.4c.2 0 .5-.1.7-.1h.4c.2 0 .4 0 .7-.1h5.7c.1 0 .1 0 .2.1h.1s.1 0 .1.1c0 0 .1 0 .1.1h.1c-.6.9-4.5 2.9-11.3 4.3-6.8 1.3-11.2 1-12.1.3l.2-.2c0 .1 0 0 0 0zm10.4 2.1l.4 2c-1.1.2-2.1.3-3 .4l-.4-2c1.1-.1 2.2-.3 3-.4zm-6.6 2.5l-.4-1.9h.3c.6 0 1.2 0 1.7-.1l.4 1.9c-.7.1-1.4.1-2 .1zm9-.9l-.4-2c1.1-.2 8.2-1.7 11.4-4l.3 1.6c-.3.9-4.3 3-11.3 4.4zm2.2 9.9c-3.1-1.8-6.1-3.2-8.6-4-3-.9-4.8-.8-5.5.4l-2 3.5c-2 3.4 8.9 9.8 10.1 10.5 3.1 1.8 6.1 3.2 8.6 4 1.3.4 2.4.6 3.3.6 1.1 0 1.8-.3 2.2-1l2-3.5c2-3.4-8.8-9.8-10.1-10.5zm.1 2.4c.1.1.2.2.4.2.2.1.5.3.7.4.1.1.3.2.4.3.2.1.4.2.6.4.1.1.3.2.4.3.2.1.3.2.5.3.1.1.2.2.4.3.2.1.3.2.5.3l.3.3c.1.1.3.2.4.3s.2.2.3.2c.1.1.3.2.4.3s.2.2.3.2l.3.3c.1.1.2.1.2.2l.3.3.2.2.3.3.2.2c.1.1.2.2.2.3.1.1.1.1.1.2.1.1.1.2.2.2 0 .1.1.1.1.1l.2.2.1.1c0 .1.1.1.1.2 0 0 0 .1.1.1 0 .1.1.1.1.1v.2c-1 .3-5.3-.8-11.3-4.3s-9.1-6.7-9.3-7.7h.8c1.7.2 5.6 1.4 10.6 4.3.2.3.6.5.9.7zm-11.5-.7c.5.4 1 .9 1.6 1.3l-1 1.7c-.6-.5-1.1-.9-1.5-1.3l.9-1.7zm3.2 2.5c.8.6 1.6 1.1 2.5 1.7l-1 1.7c-.9-.6-1.7-1.1-2.5-1.7l1-1.7zm-5.3-4.8c.2.3.4.5.7.8l-.9 1.6c-.4-.5-.5-.8-.6-1l.8-1.4zm8.5 9.3c0-.1-.1-.1 0 0l1-1.7c3.1 1.8 6.1 3.2 8.6 3.9 1 .3 1.9.5 2.6.6l-.8 1.4c-.8.4-5.2-.7-11.4-4.2z"/></g></svg>