<svg xmlns="http://www.w3.org/2000/svg" viewBox="0 5 100 90"><path fill="#e2bc74" d="M41 62H13c-.83 0-1.5-.67-1.5-1.5S12.17 59 13 59h28c.83 0 1.5.67 1.5 1.5S41.83 62 41 62zm-10 6H13c-.83 0-1.5-.67-1.5-1.5S12.17 65 13 65h18c.83 0 1.5.67 1.5 1.5S31.83 68 31 68z"/><path fill="#e2bc74" d="M90.98 22H9.02C5.7 22 3 24.7 3 28.02v46.97C3 78.3 5.7 81 9.02 81h81.97C94.3 81 97 78.3 97 74.98V28.02C97 24.7 94.3 22 90.98 22zM94 28.02V48H73.26c1.23-1 2.42-1.4 3.45-2.3 3.97-3.44 5.97-6.52 6.13-9.38.09-1.74-.51-3.34-1.8-4.72-1.09-1.17-2.5-1.79-4.09-1.79-4.71 0-9.53 5.33-9.58 5.39-.23.28-1.37 1.59-2.37 3.66V25h25.98c1.67 0 3.02 1.35 3.02 3.02zM65.27 47.51c.6-5.83 3.93-9.87 4.34-10.35.59-.68 4.46-4.35 7.35-4.35.76 0 1.37.26 1.89.83.72.77 1.05 1.59 1 2.5-.1 1.95-1.87 4.45-5.09 7.25-2.76 2.39-7.08 3.6-9.49 4.12zM9.02 25H62v13.88c-1-.98-1.22-1.92-1.94-2.76-3.58-4.13-6.77-6.14-9.72-6.14-1.61 0-3.09.61-4.38 1.81-1.2 1.12-1.82 2.58-1.79 4.22.1 4.67 5.33 9.49 5.39 9.53.27.24 1.57 1.46 3.64 2.46H6V28.02C6 26.35 7.35 25 9.02 25zm52.83 22.56c-5.83-.6-9.87-3.93-10.35-4.34-.67-.58-4.3-4.41-4.35-7.3-.01-.79.25-1.41.83-1.95.72-.67 1.48-1 2.32-1 1.97 0 4.54 1.76 7.43 5.1 2.39 2.75 3.6 7.07 4.12 9.49zM6 74.98V51h53.5l-8.7 8.58c-.59.58-.59 1.51-.01 2.1.58.59 1.58.58 2.17 0L62 52.76V78H9.02C7.35 78 6 76.65 6 74.98zM90.98 78H65V52.87l8.95 8.81c.29.29.65.43 1.03.43.39 0 .77-.15 1.06-.45.58-.59.56-1.5-.03-2.08L67.2 51H94v23.98c0 1.67-1.35 3.02-3.02 3.02z"/></svg>