<svg xmlns="http://www.w3.org/2000/svg" viewBox="5 10 90 80"><path fill="#e2bc74" d="M38.76 17l9.12 9.12.88.88H87c2.76 0 5 2.24 5 5v46c0 2.76-2.24 5-5 5H13c-2.76 0-5-2.24-5-5V22c0-2.76 2.24-5 5-5h25.76M40 14H13c-4.42 0-8 3.58-8 8v56c0 4.42 3.58 8 8 8h74c4.42 0 8-3.58 8-8V32c0-4.42-3.58-8-8-8H50L40 14zm55 1.5c0-.83-.67-1.5-1.5-1.5h-47c-.83 0-1.5.67-1.5 1.5s.67 1.5 1.5 1.5h47c.83 0 1.5-.67 1.5-1.5zm0 5c0-.83-.67-1.5-1.5-1.5h-42c-.83 0-1.5.67-1.5 1.5s.67 1.5 1.5 1.5h42c.83 0 1.5-.67 1.5-1.5z"/></svg>