<svg xmlns="http://www.w3.org/2000/svg" viewBox="5 5 90 90"><path fill="#e2bc74" d="M41 90h48c.55 0 1-.45 1-1V21.08c0-.55-.45-1-1-1H60V11c0-.55-.45-1-1-1H11c-.55 0-1 .45-1 1v67.92c0 .55.45 1 1 1h29V89c0 .55.45 1 1 1zm14.15-10.08L42 87.24v-7.32h13.15zM88 22.08V88H44.75l14.73-8.2c.04-.02.06-.06.1-.09.06-.04.11-.08.16-.13.04-.05.07-.1.11-.16.03-.05.06-.11.09-.17.02-.07.03-.13.04-.2.01-.04.03-.08.03-.13V22.08H88zM12 12h46v65.92H12V12z"/><path fill="#e2bc74" d="M68.67 33.74H79.5c.55 0 1-.45 1-1s-.45-1-1-1H68.67c-.55 0-1 .45-1 1s.44 1 1 1zm-48.69 15.5H36.3c.83 0 1.51-.6 1.51-1.35s-.67-1.35-1.51-1.35H19.98c-.83 0-1.51.6-1.51 1.35s.68 1.35 1.51 1.35z"/><path fill="#e2bc74" d="M30.41 49.24h16.32c.83 0 1.51-.6 1.51-1.35s-.67-1.35-1.51-1.35H30.41c-.83 0-1.51.6-1.51 1.35s.68 1.35 1.51 1.35zm-10.43 7.72H36.3c.83 0 1.51-.6 1.51-1.35 0-.75-.67-1.35-1.51-1.35H19.98c-.83 0-1.51.6-1.51 1.35.01.75.68 1.35 1.51 1.35z"/><path fill="#e2bc74" d="M30.41 56.96h16.32c.83 0 1.51-.6 1.51-1.35 0-.75-.67-1.35-1.51-1.35H30.41c-.83 0-1.51.6-1.51 1.35.01.75.68 1.35 1.51 1.35zm38.26-14.15H79.5c.55 0 1-.45 1-1s-.45-1-1-1H68.67c-.55 0-1 .45-1 1s.44 1 1 1zm0 9.08H79.5c.55 0 1-.45 1-1s-.45-1-1-1H68.67c-.55 0-1 .45-1 1s.44 1 1 1zm0 9.07H79.5c.55 0 1-.45 1-1s-.45-1-1-1H68.67c-.55 0-1 .45-1 1s.44 1 1 1zm0 9.08H79.5c.55 0 1-.45 1-1s-.45-1-1-1H68.67c-.55 0-1 .45-1 1s.44 1 1 1zm0 9.08H79.5c.55 0 1-.45 1-1s-.45-1-1-1H68.67c-.55 0-1 .45-1 1s.44 1 1 1z"/></svg>