<svg xmlns="http://www.w3.org/2000/svg" viewBox="5 0 85 100"><path d="M36.96 5.968c-8.25 0-14.98 6.74-14.98 15.01 0 8.26 6.73 15.01 14.98 15.01s14.98-6.74 14.98-15.01-6.73-15.01-14.98-15.01zm0 4c6.09 0 10.99 4.9 10.99 11s-4.9 11-10.99 11-10.99-4.9-10.99-11c.01-6.1 4.9-11 10.99-11zm-12.98 30.01c-4.89 0-9.53 1.65-12.83 5.35C7.86 49.018 6 54.558 6 61.988v16.01c0 1.05.95 2 2 2h24.97c1.06.02 2.03-.94 2.03-2s-.97-2.02-2.03-2H10v-14.01c0-6.77 1.68-11.24 4.15-14.01 2.47-2.77 5.81-4 9.83-4h25.97c4.02 0 7.36 1.24 9.83 4s4.15 7.24 4.15 14.01c-.01 1.06.94 2.03 2 2.03s2.01-.97 2-2.03c0-7.43-1.86-12.97-5.15-16.66-3.29-3.69-7.94-5.35-12.83-5.35H23.98zm64.27 10.04c-1.27.02-2.6.49-3.68 1.47-8.2 8.22-16.42 16.45-24.63 24.67-3.89-3.86-7.73-7.81-11.64-11.63-1.23-1.12-2.77-1.66-4.18-1.53s-2.66.84-3.56 1.78c-.9.94-1.5 2.18-1.59 3.56-.09 1.38.45 2.86 1.56 4 5.83 6.3 11.98 12.73 17.95 19.04.74.79 2.16.79 2.9 0 10.21-10.76 20.84-21.17 30.96-31.98 1.12-1.13 1.65-2.66 1.56-4.03-.09-1.38-.7-2.61-1.59-3.56-.89-.95-2.11-1.64-3.53-1.78-.18-.03-.35-.01-.53-.01zm-.1 3.97c.08-.01.17-.01.25 0 .32.03.7.24 1 .56.3.32.48.73.5 1.06.02.34-.03.59-.41.97-9.85 10.18-19.71 20.36-29.56 30.54-5.5-5.86-11.09-11.67-16.54-17.54-.39-.4-.46-.66-.44-1 .02-.34.2-.75.5-1.06.3-.31.68-.5 1-.53.32-.03.64 0 1.15.47l12.92 12.94c.74.73 2.07.73 2.81 0l25.91-25.95c.39-.34.66-.44.91-.46zM7.81 83.998c-1.05.05-1.95 1.05-1.9 2.09.05 1.05 1.05 1.96 2.09 1.91h34.96c1.06.02 2.03-.94 2.03-2s-.97-2.02-2.03-2H7.81z"/></svg>