<svg xmlns="http://www.w3.org/2000/svg" viewBox="5 5 90 90"><path fill="#e2bc74" d="M71.7 7l-49.9 9.6c-.5.1-.8.5-.8 1V92c0 .6.5 1 1 1h56c.6 0 1-.4 1-1V17.6c0-.5-.4-1-1-1H32.4l38.5-7.4v1.2c0 .6.4 1 1 1s1-.4 1-1V8c0-.6-.4-1-1-1h-.2zM23 18.6h54V91H23V18.6zm11.1 51c-.5 0-1 .5-.9 1.1s.5 1 1.1.9h31.6c.6 0 1-.4 1-1s-.4-1-1-1H34.1zm5.6 8.3c-.5 0-1 .5-1 1.1s.5 1 1 .9h20.4c.5 0 1-.4 1-1s-.4-1-1-1H39.7c.1 0 .1 0 0 0z"/><path d="M42.8 41.1c-2.7 0-4.9-2.9-4.9-6.4 0-3.6 2.2-6.4 4.9-6.4s4.9 2.9 4.9 6.4c.1 3.5-2.1 6.4-4.9 6.4zm0-11.8c-2.2 0-3.9 2.4-3.9 5.4 0 3 1.8 5.4 3.9 5.4 2.2 0 3.9-2.4 3.9-5.4.1-3-1.7-5.4-3.9-5.4zm12.9 30.4c-1.3 0-2.5-.8-3.7-1.6-.7-.5-1.5-1-2.3-1.3-.1 0-.6-.1-1.3-.1-.7 0-1 0-1.1.1-.8.3-1.6.8-2.4 1.3-1.3.8-2.4 1.5-3.8 1.5-.7 0-1.3-.2-1.9-.6-1.4-.9-2.2-2.4-2.3-4.3-.1-1.7.5-3.6 1.5-5.3.1-.2.2-.3.4-.5 0-.1.1-.2.2-.2 1.3-2.6 4.4-5.4 9.4-5.4h.2c5.1.1 8.3 3 9.4 5.5 0 .1.1.2.2.3.1.2.3.4.4.6 2.1 3.7 1.5 8-1.3 9.6-.5.3-1 .4-1.6.4zm-7.4-4c.7 0 1.4.1 1.7.1 1 .4 1.7.9 2.5 1.4 1.1.7 2.1 1.4 3.2 1.4.4 0 .8-.1 1.2-.3 2.3-1.3 2.7-5 .9-8.2-.1-.1-.2-.3-.3-.4-.1-.2-.2-.3-.3-.5-1-2.2-3.9-4.8-8.5-4.9h-.2c-4.6 0-7.4 2.5-8.5 4.8-.1.1-.2.3-.3.4-.1.1-.2.2-.3.4-1 1.5-1.4 3.2-1.4 4.7.1 1.6.7 2.8 1.8 3.5.4.3.9.4 1.3.4 1 0 2-.6 3.2-1.3.8-.5 1.6-1 2.6-1.4.3 0 .8-.1 1.4-.1zM54 41.1c-2.7 0-4.9-2.9-4.9-6.4 0-3.6 2.2-6.4 4.9-6.4s4.9 2.9 4.9 6.4c0 3.5-2.2 6.4-4.9 6.4zm0-11.8c-2.2 0-3.9 2.4-3.9 5.4 0 3 1.8 5.4 3.9 5.4 2.2 0 3.9-2.4 3.9-5.4 0-3-1.8-5.4-3.9-5.4zm8.5 20c-2.6 0-4.6-2.6-4.6-5.9 0-3.3 2-5.9 4.6-5.9 2.6 0 4.6 2.6 4.6 5.9-.1 3.3-2.1 5.9-4.6 5.9zm0-10.7c-2 0-3.6 2.1-3.6 4.9 0 2.7 1.6 4.9 3.6 4.9s3.6-2.1 3.6-4.9c-.1-2.8-1.6-4.9-3.6-4.9zM35 49.3c-2.6 0-4.6-2.6-4.6-5.9 0-3.3 2-5.9 4.6-5.9 2.6 0 4.6 2.6 4.6 5.9 0 3.3-2 5.9-4.6 5.9zm0-10.7c-2 0-3.6 2.1-3.6 4.9 0 2.7 1.6 4.9 3.6 4.9s3.6-2.1 3.6-4.9c0-2.8-1.6-4.9-3.6-4.9z" fill="#e2bc74"/></svg>