<svg xmlns="http://www.w3.org/2000/svg" viewBox="5 0 85 95"><path d="M55.94 6.98L7.82 42.94l21.36 28.58.19.25 17.08 2.47L83.6 46.48l4.58-3.43-28.85-38.6-3.39 2.53zm-9.89 65.69L30.2 70.38 9.92 43.24 55.64 9.08l13.53 18.1 13.53 18.1-36.65 27.39zM83.9 44.38l-13.53-18.1-13.53-18.1 2.18-1.63 27.05 36.2-2.17 1.63zM32.79 77.52c-2.11 0-3.83 1.72-3.83 3.83 0 2.11 1.72 3.83 3.83 3.83 2.11 0 3.83-1.72 3.83-3.83a3.837 3.837 0 00-3.83-3.83zm0 6.15c-1.28 0-2.33-1.04-2.33-2.33 0-1.28 1.04-2.33 2.33-2.33 1.28 0 2.33 1.04 2.33 2.33-.01 1.28-1.05 2.33-2.33 2.33zm9.35-4.53c-1.21 0-2.2.99-2.2 2.2s.99 2.2 2.2 2.2 2.2-.99 2.2-2.2-.99-2.2-2.2-2.2zm0 2.9c-.38 0-.7-.31-.7-.7s.31-.7.7-.7.7.31.7.7-.32.7-.7.7zm-3.36 3.56c-1.56 0-2.82 1.27-2.82 2.82s1.27 2.82 2.82 2.82 2.83-1.27 2.83-2.82-1.27-2.82-2.83-2.82zm0 4.15c-.73 0-1.32-.59-1.32-1.32s.59-1.32 1.32-1.32 1.33.6 1.33 1.32-.6 1.32-1.33 1.32z" fill="#e2bc74"/></svg>