<svg xmlns="http://www.w3.org/2000/svg" width="52" height="62.724" viewBox="0 0 52 62.724"><g transform="translate(0 -0.276)"><rect width="52" height="16" transform="translate(0 14)" fill="#d7bb77"/><rect width="46" height="30" transform="translate(3 33)" fill="#d7bb77"/><rect width="10" height="49" transform="translate(21 14)"/><g transform="translate(11 0)" fill="none" stroke-miterlimit="10"><path d="M15.042,13.5s-19-6-14-12S15.042,13.5,15.042,13.5Z" stroke="none"/><path d="M 7.544189929962158 7.085183143615723 C 5.129481315612793 3.93010687828064 3.784538745880127 3.382107973098755 3.465835094451904 3.292275428771973 C 3.435731649398804 3.320281744003296 3.395492315292358 3.361553430557251 3.346327066421509 3.420550107955933 C 3.275886297225952 3.505083322525024 3.236729621887207 3.566346168518066 3.215987682342529 3.603662490844727 C 3.307746410369873 3.847265005111694 3.93828010559082 5.112643718719482 7.544189929962158 7.085183143615723 M 15.04166698455811 13.5 C 15.04166698455811 13.5 -3.958333015441895 7.5 1.041666984558105 1.5 C 1.755778312683105 0.64306640625 2.552097320556641 0.2755102217197418 3.391521215438843 0.2755102217197418 C 8.429498672485352 0.2755102217197418 15.04166698455811 13.5 15.04166698455811 13.5 Z" stroke="none" fill="#d7bb77"/></g><g transform="translate(41.042 0)" fill="none" stroke-miterlimit="10"><path d="M-15.042,13.5s19-6,14-12S-15.042,13.5-15.042,13.5Z" stroke="none"/><path d="M -7.544182300567627 7.085178852081299 C -3.938272476196289 5.112639427185059 -3.307746648788452 3.847265481948853 -3.215987920761108 3.603662967681885 C -3.236729860305786 3.56634783744812 -3.275886297225952 3.505087614059448 -3.346327066421509 3.420559883117676 C -3.39523720741272 3.361865282058716 -3.435305833816528 3.32072114944458 -3.465357780456543 3.292721748352051 C -3.788972854614258 3.384025812149048 -5.133646011352539 3.935594081878662 -7.544182300567627 7.085178852081299 M -15.04166698455811 13.5 C -15.04166698455811 13.5 -8.429498672485352 0.2755102217197418 -3.391521215438843 0.2755102217197418 C -2.552097320556641 0.2755102217197418 -1.755778312683105 0.64306640625 -1.041666984558105 1.5 C 3.958333015441895 7.5 -15.04166698455811 13.5 -15.04166698455811 13.5 Z" stroke="none" fill="#d7bb77"/></g></g></svg>