<svg xmlns="http://www.w3.org/2000/svg" width="67.308" height="66.623" viewBox="0 0 67.308 66.623"><g transform="translate(-131.346 -89)"><path d="M43.579,66.623c-4.908-4.873-14.25-4.873-19.158,0h0C22.927,59.87,15.068,54.819,8.3,56.265h0C10.7,49.777,6.818,41.279.346,38.839h0C5.868,34.674,7.2,25.427,3.073,19.876h0C9.969,19.358,16.087,12.3,15.618,5.4h0C21.7,8.69,30.664,6.058,34,0h0c3.336,6.058,12.3,8.69,18.382,5.4h0c-.469,6.9,5.649,13.961,12.546,14.479h0c-4.125,5.551-2.8,14.8,2.726,18.963h0C61.182,41.279,57.3,49.777,59.7,56.265h0c-6.763-1.446-14.622,3.6-16.117,10.357h0Z" transform="translate(131 89)" fill="#d7bb77"/><text transform="translate(164.5 134)" font-size="28" font-family="Roboto-Medium, Roboto" font-weight="500"><tspan x="-10.281" y="0">%</tspan></text></g></svg>