<svg xmlns="http://www.w3.org/2000/svg" width="58" height="64" viewBox="0 0 58 64"><g transform="translate(0 12)" fill="none" stroke-miterlimit="10"><path d="M0,0H51V19H29V47H0Z" stroke="none"/><path d="M 1 1 L 1 46 L 28 46 L 28 19 L 28 18 L 29 18 L 50 18 L 50 1 L 1 1 M 0 0 L 51 0 L 51 19 L 29 19 L 29 47 L 0 47 L 0 0 Z" stroke="none" fill="#d7bb77"/></g><g transform="translate(0)" fill="none" stroke-miterlimit="10"><path d="M9.181,0H41.819L51,13H0Z" stroke="none"/><path d="M 9.699375152587891 1 L 1.930515289306641 12 L 49.06948471069336 12 L 41.30061721801758 1 L 9.699375152587891 1 M 9.181381225585938 0 L 41.81861114501953 0 L 51 13 L 0 13 L 9.181381225585938 0 Z" stroke="none" fill="#d7bb77"/></g><path d="M1.114,0H5.886L7,13H0Z" transform="translate(22)" fill="#d7bb77"/><rect width="7" height="11" transform="translate(22 12)" fill="#d7bb77"/><g transform="translate(28 30)" fill="none" stroke="#d7bb77" stroke-miterlimit="10" stroke-width="1"><rect width="30" height="34" stroke="none"/><rect x="0.5" y="0.5" width="29" height="33" fill="none"/></g><path d="M0,1.976,1.632,3.953,5.076,0" transform="translate(33 45)" fill="none" stroke="#d7bb77" stroke-miterlimit="10" stroke-width="1"/><path d="M0,1.976,1.632,3.953,5.076,0" transform="translate(33 37)" fill="none" stroke="#d7bb77" stroke-miterlimit="10" stroke-width="1"/><path d="M0,1.976,1.632,3.953,5.076,0" transform="translate(33 53)" fill="none" stroke="#d7bb77" stroke-miterlimit="10" stroke-width="1"/><path d="M0,.5H11" transform="translate(43 55)" fill="none" stroke="#d7bb77" stroke-linecap="square" stroke-miterlimit="10" stroke-width="1"/><path d="M0,.5H11" transform="translate(43 47)" fill="none" stroke="#d7bb77" stroke-linecap="square" stroke-miterlimit="10" stroke-width="1"/><path d="M0,.5H11" transform="translate(43 39)" fill="none" stroke="#d7bb77" stroke-linecap="square" stroke-miterlimit="10" stroke-width="1"/></svg>