<?xml version="1.0" encoding="UTF-8"?>
<svg width="30px" height="30px" viewBox="0 0 30 30" version="1.1" xmlns="http://www.w3.org/2000/svg" xmlns:xlink="http://www.w3.org/1999/xlink">
    <!-- Generator: Sketch 61.2 (89653) - https://sketch.com -->
    <title>Artboard</title>
    <desc>Created with Sketch.</desc>
    <g id="Artboard" stroke="none" stroke-width="1" fill="none" fill-rule="evenodd">
        <g id="Group-53" transform="translate(6.500000, 5.500000)">
            <g id="Group-54">
                <rect id="Rectangle" stroke="#DF2A27" stroke-width="2" x="1.25" y="2.83333333" width="14.5" height="14.5" rx="2"></rect>
                <path d="M3.6366588,0 C4.12814086,-9.02837882e-17 4.52656578,0.398424924 4.52656578,0.889906976 L4.52656578,3 L4.52656578,3 L2.74675183,3 L2.74675183,0.889906976 C2.74675183,0.398424924 3.14517675,9.02837882e-17 3.6366588,0 Z" id="Rectangle" fill="#DF2A27"></path>
                <path d="M12.8421179,0 C13.3336,-9.02837882e-17 13.7320249,0.398424924 13.7320249,0.889906976 L13.7320249,3 L13.7320249,3 L11.9522109,3 L11.9522109,0.889906976 C11.9522109,0.398424924 12.3506359,9.02837882e-17 12.8421179,0 Z" id="Rectangle-Copy-22" fill="#DF2A27"></path>
            </g>
            <rect id="Rectangle" fill="#DF2A27" x="1.96440576" y="3.2121423" width="14" height="3.21449341"></rect>
        </g>
    </g>
</svg>