<svg xmlns="http://www.w3.org/2000/svg" width="54" height="55" viewBox="0 0 54 55"><path d="M1.236,52.379l10.884-.727c9.352-1.315,7.8-9.218,7.8-9.218h.01c0,.166.011.314.011.461.09-17.076,8.34-21.125,11.728-22.072.642-.142,1.328-.277,2.082-.381l3.343-9.107.653-1.776a12.881,12.881,0,0,0,1.588-1.265A29.394,29.394,0,0,0,46.007,0a7.226,7.226,0,0,1,.563,1.36,6.553,6.553,0,0,1,.26,2.948,2.944,2.944,0,0,1-.146.616s4.4,1.4,4.806,3.048c.044.189.1.384.158.559a4.592,4.592,0,0,0,1.587,2.608A2.486,2.486,0,0,1,54,12.346a11.873,11.873,0,0,1-2.466,3.886,2.171,2.171,0,0,0-1.417.5,2.391,2.391,0,0,0-.586.579v.011a3.231,3.231,0,0,0-.539,1.9,11.6,11.6,0,0,0,2.261,6.137,24.944,24.944,0,0,0-4.817,14.806,22.514,22.514,0,0,0,.305,4.99A28.769,28.769,0,0,0,48,50.72a3.218,3.218,0,0,0,1.654,1.793h-.01a7.623,7.623,0,0,1,.934.5,1.136,1.136,0,0,1,.252,1.519,1.012,1.012,0,0,1-.849.466H46.752a2.163,2.163,0,0,1-1.88-1.338l-3.589-9.278s-.98,1.076-1.464,1.684.237,1.09.09,2.51-2.115,3.289-2.115,3.289a16.274,16.274,0,0,1,2.037.892,1.178,1.178,0,0,1,.636,1.492A1.09,1.09,0,0,1,39.436,55H25.166a4.042,4.042,0,0,1-3.309-1.665c-.034-.055-.068-.1-.1-.157a14.377,14.377,0,0,1-4.267,1.4,32.748,32.748,0,0,1-3.568.393C13.292,55,12.909,55,12.909,55l-.135-.029H2.926C2.251,54.971,0,54.392,0,53.677a1.277,1.277,0,0,1,1.238-1.292" fill="#df2a27"/></svg>