<svg xmlns="http://www.w3.org/2000/svg" width="30.092" height="30.822" viewBox="0 0 30.092 30.822"><path d="M.689,29.354l6.065-.407c5.211-.737,4.347-5.166,4.347-5.166h.006c0,.093.006.176.006.259.05-9.57,4.648-11.839,6.535-12.369.358-.08.74-.155,1.16-.214l1.863-5.1.364-1a7.185,7.185,0,0,0,.885-.709A16.456,16.456,0,0,0,25.638,0a4.062,4.062,0,0,1,.314.762A3.692,3.692,0,0,1,26.1,2.414a1.658,1.658,0,0,1-.082.345s2.452.786,2.678,1.708c.024.106.056.215.088.314a2.576,2.576,0,0,0,.884,1.462,1.394,1.394,0,0,1,.427.676A6.659,6.659,0,0,1,28.718,9.1a1.205,1.205,0,0,0-.79.282A1.336,1.336,0,0,0,27.6,9.7v.006a1.818,1.818,0,0,0-.3,1.067,6.525,6.525,0,0,0,1.26,3.439,14.032,14.032,0,0,0-2.684,8.3,12.687,12.687,0,0,0,.17,2.8,16.2,16.2,0,0,0,.7,3.115,1.8,1.8,0,0,0,.922,1h-.006a4.24,4.24,0,0,1,.521.279.639.639,0,0,1,.14.851.563.563,0,0,1-.473.261h-1.8a1.206,1.206,0,0,1-1.047-.75l-2-5.2s-.546.6-.816.944.132.611.05,1.407a4.234,4.234,0,0,1-1.179,1.843,9.043,9.043,0,0,1,1.135.5.662.662,0,0,1,.354.836.608.608,0,0,1-.575.421H14.024a2.248,2.248,0,0,1-1.844-.933c-.019-.031-.038-.058-.056-.088a7.981,7.981,0,0,1-2.378.784,18.151,18.151,0,0,1-1.988.22c-.351.016-.564.016-.564.016l-.075-.016H1.631c-.376,0-1.631-.324-1.631-.725a.714.714,0,0,1,.69-.724" fill="#fff"/></svg>