<svg xmlns="http://www.w3.org/2000/svg" width="93.092" height="55" viewBox="0 0 93.092 55"><path d="M1.236,52.379l10.884-.727c9.352-1.315,7.8-9.218,7.8-9.218h.01c0,.166.011.314.011.461.09-17.076,8.34-21.125,11.728-22.072.642-.142,1.328-.277,2.082-.381l3.343-9.107.653-1.776a12.881,12.881,0,0,0,1.588-1.265A29.394,29.394,0,0,0,46.007,0a7.226,7.226,0,0,1,.563,1.36,6.553,6.553,0,0,1,.26,2.948,2.944,2.944,0,0,1-.146.616s4.4,1.4,4.806,3.048c.044.189.1.384.158.559a4.592,4.592,0,0,0,1.587,2.608A2.486,2.486,0,0,1,54,12.346a11.873,11.873,0,0,1-2.466,3.886,2.171,2.171,0,0,0-1.417.5,2.391,2.391,0,0,0-.586.579v.011a3.231,3.231,0,0,0-.539,1.9,11.6,11.6,0,0,0,2.261,6.137,24.944,24.944,0,0,0-4.817,14.806,22.514,22.514,0,0,0,.305,4.99A28.769,28.769,0,0,0,48,50.72a3.218,3.218,0,0,0,1.654,1.793h-.01a7.623,7.623,0,0,1,.934.5,1.136,1.136,0,0,1,.252,1.519,1.012,1.012,0,0,1-.849.466H46.752a2.163,2.163,0,0,1-1.88-1.338l-3.589-9.278s-.98,1.076-1.464,1.684.237,1.09.09,2.51-2.115,3.289-2.115,3.289a16.274,16.274,0,0,1,2.037.892,1.178,1.178,0,0,1,.636,1.492A1.09,1.09,0,0,1,39.436,55H25.166a4.042,4.042,0,0,1-3.309-1.665c-.034-.055-.068-.1-.1-.157a14.377,14.377,0,0,1-4.267,1.4,32.748,32.748,0,0,1-3.568.393C13.292,55,12.909,55,12.909,55l-.135-.029H2.926C2.251,54.971,0,54.392,0,53.677a1.277,1.277,0,0,1,1.238-1.292" fill="#fff"/><path d="M1.13,33.52l5.522-.638c7.69-.851,6.636-5.7,6.636-5.7s1.055-6.833,6.96-9.47c5.695-1.392,5.062-4.011,5.062-4.011s0-4.23,1.374-6.412c2.142-2.961,4.525-4.5,6.1-7.286A6.211,6.211,0,0,1,33.3,1.195a5.541,5.541,0,0,1,.238,2.589,2.5,2.5,0,0,1-.134.541S37.426,5.558,37.8,7c.04.166.093.337.144.491a4.012,4.012,0,0,0,1.451,2.291,2.176,2.176,0,0,1,.7,1.06,10.386,10.386,0,0,1-2.255,3.414,2.035,2.035,0,0,0-1.3.442,14.852,14.852,0,0,0-1.591,1.113v.009c-.34.486,1.094,3.926,1.114,4.524.107,1.476-1.476,6.044-1.767,8.042-.191,1.829-.551,2.911,0,4.493.281.708.923.455,1.611.756a7.7,7.7,0,0,1,.845.438.972.972,0,0,1,.231,1.335.935.935,0,0,1-.776.41H33.255a1.975,1.975,0,0,1-1.719-1.175l-.954-6.256s-1.622,1.186-1.757,2.433-1.863,2.247-1.863,2.247a15.2,15.2,0,0,1,1.863.783,1.022,1.022,0,0,1,.581,1.31.994.994,0,0,1-.943.659H17.948a3.747,3.747,0,0,1-3.025-1.463c-.031-.048-.062-.091-.093-.138a13.524,13.524,0,0,1-3.9,1.23A15.068,15.068,0,0,1,8.3,35.8c-1.648.026-5.624,0-5.624,0C2.058,35.8,0,35.288,0,34.661a1.143,1.143,0,0,1,1.132-1.135" transform="translate(53 19)" fill="#fff"/></svg>