<svg xmlns="http://www.w3.org/2000/svg" xmlns:xlink="http://www.w3.org/1999/xlink" width="240" height="230" viewBox="30 40 240 230" preserveAspectRatio="none"><defs><linearGradient id="a" x1="0.5" x2="0.5" y2="1" gradientUnits="objectBoundingBox"><stop offset="0" stop-color="#1c1c1c"/><stop offset="1"/></linearGradient></defs><g transform="translate(104.53 -10.718) rotate(30)" stroke-miterlimit="10" fill="url(#a)"><path d="M 120 236.406005859375 C 116.5817642211914 236.406005859375 113.2102661132813 235.5025939941406 110.25 233.7935028076172 L 26.32694053649902 185.3404998779297 C 23.36667633056641 183.6313781738281 20.8985595703125 181.1632690429688 19.1894416809082 178.2030029296875 C 17.48032379150391 175.2427368164063 16.57694053649902 171.8712310791016 16.57694053649902 168.4530029296875 L 16.57694053649902 71.5469970703125 C 16.57694053649902 68.12879180908203 17.48032379150391 64.75729370117188 19.1894416809082 61.79700088500977 C 20.8985595703125 58.83673477172852 23.36667633056641 56.36861801147461 26.32694053649902 54.65950012207031 L 110.25 6.206500053405762 C 113.2102661132813 4.497411727905273 116.5817642211914 3.594029426574707 120 3.594029426574707 C 123.4182357788086 3.594029426574707 126.7897338867188 4.497411727905273 129.75 6.206500053405762 L 213.6730651855469 54.65950012207031 C 216.6333160400391 56.36861801147461 219.1014404296875 58.83673477172852 220.8105621337891 61.79700088500977 C 222.5196838378906 64.75729370117188 223.4230651855469 68.12879180908203 223.4230651855469 71.5469970703125 L 223.4230651855469 168.4530029296875 C 223.4230651855469 171.8712310791016 222.5196838378906 175.2427368164063 220.8105621337891 178.2030029296875 C 219.1014404296875 181.1632690429688 216.6333160400391 183.6313781738281 213.6730651855469 185.3404998779297 L 129.75 233.7935028076172 C 126.7897338867188 235.5025939941406 123.4182357788086 236.406005859375 120 236.406005859375 Z" stroke="none"/><path d="M 120 4.093994140625 C 116.6693725585938 4.093994140625 113.3843460083008 4.974212646484375 110.5 6.6395263671875 L 26.57693481445313 55.092529296875 C 23.69256591796875 56.7578125 21.28775024414063 59.16262817382813 19.62246704101563 62.0469970703125 C 17.9571533203125 64.93138122558594 17.07693481445313 68.21640014648438 17.07693481445313 71.5469970703125 L 17.07693481445313 168.4530029296875 C 17.07693481445313 171.7835998535156 17.9571533203125 175.0686340332031 19.62246704101563 177.9530029296875 C 21.28775024414063 180.8373718261719 23.69256591796875 183.2421875 26.57693481445313 184.907470703125 L 110.5 233.3604736328125 C 113.384407043457 235.0257873535156 116.6694412231445 235.906005859375 120 235.906005859375 C 123.3305282592773 235.906005859375 126.615592956543 235.0257873535156 129.5 233.3604736328125 L 213.4230346679688 184.907470703125 C 216.3074035644531 183.2421875 218.7122192382813 180.8373718261719 220.3775329589844 177.9530029296875 C 222.0428161621094 175.0686340332031 222.9230346679688 171.7835998535156 222.9230346679688 168.4530029296875 L 222.9230346679688 71.5469970703125 C 222.9230346679688 68.21640014648438 222.0428161621094 64.93138122558594 220.3775329589844 62.0469970703125 C 218.7122192382813 59.16262817382813 216.3074035644531 56.7578125 213.4230346679688 55.092529296875 L 129.5 6.6395263671875 C 126.6156234741211 4.974212646484375 123.3305969238281 4.093994140625 120 4.093994140625 M 120 3.094009399414063 C 123.452995300293 3.094009399414063 126.9059829711914 3.987167358398438 130 5.77349853515625 L 213.9230346679688 54.22650146484375 C 220.1110687255859 57.79916381835938 223.9230346679688 64.40168762207031 223.9230346679688 71.5469970703125 L 223.9230346679688 168.4530029296875 C 223.9230346679688 175.5983123779297 220.1110687255859 182.2008361816406 213.9230346679688 185.7734985351563 L 130 234.2265014648438 C 126.9059829711914 236.0128326416016 123.452995300293 236.9059906005859 120 236.9059906005859 C 116.547004699707 236.9059906005859 113.0940170288086 236.0128326416016 110 234.2265014648438 L 26.07693481445313 185.7734985351563 C 19.88893127441406 182.2008361816406 16.07693481445313 175.5983123779297 16.07693481445313 168.4530029296875 L 16.07693481445313 71.5469970703125 C 16.07693481445313 64.40168762207031 19.88893127441406 57.79916381835938 26.07693481445313 54.22650146484375 L 110 5.77349853515625 C 113.0940170288086 3.987167358398438 116.547004699707 3.094009399414063 120 3.094009399414063 Z" stroke="none" fill="#d7bb77"/></g></svg>