<?xml version="1.0" encoding="UTF-8"?>
<svg width="26px" height="26px" viewBox="0 0 26 26" version="1.1" xmlns="http://www.w3.org/2000/svg" xmlns:xlink="http://www.w3.org/1999/xlink">
    <!-- Generator: Sketch 62 (91390) - https://sketch.com -->
    <title>Combined Shape Copy</title>
    <desc>Created with Sketch.</desc>
    <g id="SERVICES" stroke="none" stroke-width="1" fill="none" fill-rule="evenodd">
        <g id="планшет_768-copy-10" transform="translate(-342.000000, -264.000000)" fill="#DF2A27">
            <g id="Group-5" transform="translate(134.000000, 149.000000)">
                <g id="Group-32" transform="translate(185.000000, 92.000000)">
                    <g id="Group-8">
                        <path d="M37.111175,18.732233 C42.0737256,18.732233 46.1114373,22.7613508 46.1109127,27.7133392 C46.1109127,32.1141179 42.9219756,35.783091 38.7289875,36.5463045 L38.7289875,36.5463045 L38.7289127,44.764233 L41.4554133,41.5784747 C42.0309227,40.9058012 42.9451882,40.8703974 43.5563562,41.4722631 L43.655301,41.5784747 C44.2308105,42.2511481 44.2611005,43.3197701 43.7461709,44.0341223 L43.655301,44.1497721 L38.2108566,50.5134084 C37.6353471,51.1860818 36.7210816,51.2214857 36.1099136,50.61962 L36.0109688,50.5134084 L30.5665244,44.1497721 C29.9590421,43.4397279 29.9590421,42.2885188 30.5665244,41.5784747 C31.1420339,40.9058012 32.0562993,40.8703974 32.6674673,41.4722631 L32.7664121,41.5784747 L35.4929127,44.764233 L35.4933625,36.5463045 C31.3877283,35.7989913 28.2442425,32.2657306 28.1150459,27.9874153 L28.1109127,27.7133392 C28.1109127,22.7613508 32.1486244,18.732233 37.111175,18.732233 Z M37.111175,21.9614948 C33.9327295,21.9614948 31.3470623,24.5416587 31.3470623,27.7133392 C31.3470623,30.8850197 33.9327295,33.4651836 37.111175,33.4651836 C40.2896205,33.4651836 42.8752877,30.8850197 42.8752877,27.7133392 C42.8752877,24.5416587 40.2896205,21.9614948 37.111175,21.9614948 Z" id="Combined-Shape-Copy" transform="translate(37.110913, 34.889087) scale(1, -1) rotate(-45.000000) translate(-37.110913, -34.889087) "></path>
                    </g>
                </g>
            </g>
        </g>
    </g>
</svg>