<svg xmlns="http://www.w3.org/2000/svg" width="39.495" height="29.121" viewBox="0 0 39.495 29.121"><g transform="translate(-1.04 0.121)"><path d="M16.378,28c.43-.072.932-.682,1.326-1.651a20.236,20.236,0,0,0,1.111-4.882,16.733,16.733,0,0,1,.358-2.082c.036-.215.227-1.3.3-1.621.466-2.477.848-3.979,1.708-5.092a8.993,8.993,0,0,0,1.469-8.041A6.016,6.016,0,0,0,19.173.512a7.615,7.615,0,0,0-6.252.852,1.494,1.494,0,0,1-1.453,0A7.191,7.191,0,0,0,7.2,0a7.024,7.024,0,0,0-4.05,1.256C.964,2.589,0,5.708,0,7.359c0,1.759,1.337,3.949,2.484,5.313a42.21,42.21,0,0,1,1.332,5.092c.072.323.234,1.37.27,1.585.143.646.251,1.364.358,2.118a17.31,17.31,0,0,0,1.111,4.846c.251.61.753,1.579,1.326,1.687h.036c.143-.108.609-.538,1.326-2.513l1.864-5.923c0-.036,0-.036.036-.072a1.641,1.641,0,0,1,3.082,0c0,.036,0,.036.036.072l1.756,5.923A6.031,6.031,0,0,0,16.378,28Z" transform="translate(9.266 1)" fill="#df2a27"/><g transform="translate(34.576)"><path d="M0,2.847,2.284.586" transform="translate(0.193)" fill="none" stroke="#df2a27" stroke-linecap="round" stroke-linejoin="round" stroke-miterlimit="10" stroke-width="1"/><path d="M0,.847,2.614,3.281" transform="translate(0 11.349)" fill="none" stroke="#df2a27" stroke-linecap="round" stroke-linejoin="round" stroke-miterlimit="10" stroke-width="1"/><path d="M0,.847H3.34" transform="translate(2.119 6.626)" fill="none" stroke="#df2a27" stroke-linecap="round" stroke-linejoin="round" stroke-miterlimit="10" stroke-width="1"/></g><g transform="translate(7) rotate(180)"><path d="M0,2.847-2.284.586" transform="translate(0.193) rotate(-180)" fill="none" stroke="#df2a27" stroke-linecap="round" stroke-linejoin="round" stroke-miterlimit="10" stroke-width="1"/><path d="M0,.847-2.614,3.281" transform="translate(0 -11.349) rotate(-180)" fill="none" stroke="#df2a27" stroke-linecap="round" stroke-linejoin="round" stroke-miterlimit="10" stroke-width="1"/><path d="M0,.847H-3.34" transform="translate(2.119 -6.626) rotate(-180)" fill="none" stroke="#df2a27" stroke-linecap="round" stroke-linejoin="round" stroke-miterlimit="10" stroke-width="1"/></g></g></svg>