<svg id="trash_1_" data-name="trash (1)" xmlns="http://www.w3.org/2000/svg" width="15.978" height="17.43" viewBox="0 0 15.978 17.43">
  <path id="Shape" d="M15.978,4.358H0V2.905H5.084V2.179A2.184,2.184,0,0,1,7.262,0H8.715a2.185,2.185,0,0,1,2.179,2.179v.726h5.084V4.357ZM7.262,1.453a.728.728,0,0,0-.726.726v.726H9.441V2.179a.727.727,0,0,0-.726-.726Z" fill="#fff"/>
  <path id="Shape-2" data-name="Shape" d="M10.891,12.346H3.322a2.174,2.174,0,0,1-2.165-1.939L0,0H14.211L13.055,10.408A2.174,2.174,0,0,1,10.891,12.346ZM10.013,1.392h0l-.726,8.715,1.447.121.726-8.715-1.447-.121Zm-5.816,0L2.75,1.513l.726,8.715,1.447-.121Zm2.182.06h0v8.715H7.832V1.453H6.379Z" transform="translate(0.883 5.084)" fill="#fff"/>
</svg>
