<svg xmlns="http://www.w3.org/2000/svg" width="42" height="25" viewBox="0 0 42 25"><path d="M.538,0A60.566,60.566,0,0,1,6.2,2.98C7.831,4.2,10.994,6.7,10.994,6.7a18.7,18.7,0,0,0,5.761.335,58.059,58.059,0,0,1,9.051.8c.279-.062,3.157.571,3.485.526l2.752-1.676A50.033,50.033,0,0,0,37.569,3.92a2.747,2.747,0,0,0,.949-.94,3.154,3.154,0,0,1,.245.593,2.861,2.861,0,0,1,.113,1.286,1.285,1.285,0,0,1-.064.269s1.917.612,2.094,1.33c.019.082.044.167.069.244a2,2,0,0,0,.691,1.138A1.084,1.084,0,0,1,42,8.365a4.932,4.932,0,0,1-1.025,1.667,1.108,1.108,0,0,0-.666.247,1.042,1.042,0,0,0-.255.252h-.741c-.162.241-.436.246-1.307.372a5.627,5.627,0,0,0-2.264,1.308,7.508,7.508,0,0,0-1.805,5.309,14.139,14.139,0,0,0,.133,2.612,12.561,12.561,0,0,0,.549,2.424,1.4,1.4,0,0,0,.721.782h0a3.319,3.319,0,0,1,.407.217.5.5,0,0,1,.11.663.441.441,0,0,1-.37.2H34.074a.942.942,0,0,1-.819-.583l-2.123-5.522c-.533-.8-.276-.8-.969-.8-.072,0,0-.075-.436,1.67s-1.06,2.855-.436,3.787a6.984,6.984,0,0,1,.871,1.883c-.287.106-1.654.4-2.178-.437-.579-.929-1.16-5.286-1.55-5.286a10.217,10.217,0,0,0-2.371.489c-2.628.436-5.664.872-8.206-.872-.658-.452-.277-.436-.729,0-.649.943-1.669,1.993-1.521,2.617a5.269,5.269,0,0,0,1.085,1.653,7.086,7.086,0,0,1,.887.389.514.514,0,0,1,.277.651c-.07.2-.076.508-.277.506H14.486a1.76,1.76,0,0,1-1.442-.726L12.3,22.681c-.436-.872-.57-2.855-.436-5.67.011-.231-1.711,1.277-2.952,2.181-.7.506-.969,2.617-.969,3.489,0,.587.274,1.579,0,1.976C7.571,25.2,6.51,24.5,6.3,24.571s-.533-1.018-.533-1.891A8.29,8.29,0,0,1,6.2,20.134c.352-.854,1.951-6.872,2.712-7.634a7.677,7.677,0,0,0,.773-2.468A10.136,10.136,0,0,0,7.073,5.564C6.4,4.991,1.41,2.107,1.41,2.107A3.481,3.481,0,0,1,0,.566" fill="#df2a27"/></svg>