<svg xmlns="http://www.w3.org/2000/svg" width="18" height="18" viewBox="0 0 18 18">
  <path id="Shape" d="M10.055,18H7.945a.525.525,0,0,1-.5-.361L6.734,15.47a6.855,6.855,0,0,1-.706-.293L4.016,16.184a.527.527,0,0,1-.609-.1L1.915,14.594a.53.53,0,0,1-.1-.609l1.007-2.012a6.856,6.856,0,0,1-.293-.706L.361,10.555a.527.527,0,0,1-.361-.5V7.945a.527.527,0,0,1,.361-.5L2.53,6.734a6.855,6.855,0,0,1,.293-.706L1.816,4.016a.53.53,0,0,1,.1-.609L3.407,1.915a.524.524,0,0,1,.373-.154.535.535,0,0,1,.236.055L6.028,2.823a6.856,6.856,0,0,1,.706-.293L7.445.361A.527.527,0,0,1,7.945,0h2.11a.525.525,0,0,1,.5.361l.712,2.169a6.855,6.855,0,0,1,.706.293l2.012-1.007a.536.536,0,0,1,.236-.055.526.526,0,0,1,.373.154l1.491,1.491a.53.53,0,0,1,.1.609L15.177,6.028a6.856,6.856,0,0,1,.293.706l2.169.711a.527.527,0,0,1,.361.5v2.11a.525.525,0,0,1-.361.5l-2.169.712a6.855,6.855,0,0,1-.293.706l1.007,2.012a.53.53,0,0,1-.1.609l-1.491,1.491a.53.53,0,0,1-.609.1l-2.012-1.007a6.856,6.856,0,0,1-.706.293l-.711,2.169A.527.527,0,0,1,10.055,18ZM9,5.308A3.692,3.692,0,1,0,12.692,9,3.7,3.7,0,0,0,9,5.308Z" fill="#fff"/>
</svg>
