<svg xmlns="http://www.w3.org/2000/svg" width="34.708" height="34.708" viewBox="5 3 27 28">
  <g id="gender" transform="translate(22.324 -0.45) rotate(45)">
    <path id="Shape" d="M8.824,31.439a1.588,1.588,0,0,1-1.586-1.586V27.008H3.678a1.586,1.586,0,0,1,0-3.172h3.56V17.5a8.823,8.823,0,1,1,3.172,0v6.335h3.559a1.586,1.586,0,0,1,0,3.172H10.409v2.845A1.588,1.588,0,0,1,8.824,31.439Zm0-28.266a5.651,5.651,0,1,0,5.651,5.651A5.657,5.657,0,0,0,8.824,3.173Z" transform="translate(0.252 0.385)" fill="#fff"/>
  </g>
</svg>
