<svg xmlns="http://www.w3.org/2000/svg" width="80.292" height="93.799" viewBox="0 0 80.292 93.799"><g transform="matrix(0.819, -0.574, 0.574, 0.819, 0, 20.075)"><path d="M0,0H7A0,0,0,0,1,7,0V18.5A3.5,3.5,0,0,1,3.5,22h0A3.5,3.5,0,0,1,0,18.5V0A0,0,0,0,1,0,0Z" transform="translate(14 32)" fill="#df2a27"/><rect width="5" height="3" transform="translate(15 27)" fill="#df2a27"/><rect width="3" height="5" rx="1.5" transform="translate(16 51)" fill="#df2a27"/><path d="M.5,0A.473.473,0,0,1,1,.44V10.56A.473.473,0,0,1,.5,11a.473.473,0,0,1-.5-.44V.44A.473.473,0,0,1,.5,0Z" transform="translate(17 53)" fill="#df2a27"/><rect width="17" height="1" rx="0.5" transform="translate(9 32)" fill="#df2a27"/><rect width="9" height="1" rx="0.5" transform="translate(13 26)" fill="#df2a27"/></g></svg>