<?xml version="1.0" encoding="UTF-8"?>
<svg width="40px" height="40px" viewBox="0 0 40 40" version="1.1" xmlns="http://www.w3.org/2000/svg" xmlns:xlink="http://www.w3.org/1999/xlink">
    <!-- Generator: Sketch 61.2 (89653) - https://sketch.com -->
    <title>5</title>
    <desc>Created with Sketch.</desc>
    <g id="5" stroke="none" stroke-width="1" fill="none" fill-rule="evenodd">
        <g id="Group-7" transform="translate(2.500000, 13.500000)" fill="#DF2A27" fill-rule="nonzero">
            <path d="M2.25806452,8.66666667 L2.25806452,13 L2.25806452,13 C1.01096992,13 -5.68434189e-14,12.0299503 -5.68434189e-14,10.8333333 C-5.68434189e-14,9.63671638 1.01096992,8.66666667 2.25806452,8.66666667 Z M24.6081955,7.31307071 L26.9606296,11.3461522 C25.8527793,12.3447933 24.553487,12.927675 23.0330788,12.9937003 L23.032576,8.64140689 C23.5379808,8.54884131 23.9897906,8.1869298 24.6081955,7.31307071 Z M22.1293063,8.6075728 L22.1290666,12.97663 C20.7299623,12.8682447 19.497398,12.3852719 18.3970084,11.5781483 L20.6510472,7.71248885 C21.1881045,8.23553637 21.630476,8.50053753 22.1293063,8.6075728 Z M4.65971997,7.95514 L6.88787074,11.7735361 C5.81523322,12.4632241 4.62860357,12.856129 3.16249135,12.9671156 L3.16210377,8.59880541 C3.72263043,8.50376253 4.19342256,8.30246717 4.65971997,7.95514 Z M7.62907247,4.59050133 L10.0161325,8.6878836 C9.95055027,8.77208492 9.89283181,8.84609658 9.86084212,8.8868504 C9.1303556,9.81746639 8.42495422,10.5845569 7.6816354,11.1937809 L5.401057,7.28338529 C5.66824757,7.00172906 5.94762677,6.66942339 6.25344867,6.27981627 C6.3424609,6.1664176 6.67814049,5.7343209 6.75498006,5.63624393 C7.05388405,5.25472698 7.34319938,4.9064319 7.62907247,4.59050133 Z M19.2140157,6.05271501 C19.2992725,6.15934024 19.2992725,6.15934024 19.3830781,6.2641706 C19.589109,6.52175143 19.7796402,6.7537008 19.9580069,6.96222707 L17.6292752,10.9510514 C17.0704518,10.442182 16.5512699,9.84113828 15.8004794,8.90249607 C15.7153191,8.7959716 15.7153191,8.7959716 15.6317901,8.69150685 C15.5341551,8.5694773 15.4404639,8.45378873 15.3503274,8.34415169 L17.7011366,4.31508308 C18.1500159,4.75579114 18.6002996,5.28565935 19.2140157,6.05271501 Z M26.7312486,3.84018418 L29.6,7.752 L29.5426307,7.85372635 C28.7544346,9.20898805 28.2825916,9.93426685 27.6716734,10.6233046 L25.2328699,6.44155451 L25.1475865,6.49219057 C25.3374724,6.18615051 25.542894,5.84040046 25.7678246,5.45056261 L25.7697666,5.44719685 C26.1476015,4.79235344 26.4540826,4.27495535 26.7312486,3.84018418 Z M12.1933569,2.18294453 L12.1931583,6.57183125 C11.7335058,6.71077322 11.3132559,7.07471527 10.6679204,7.86131515 L8.33941768,3.86827247 C9.46920108,2.82494134 10.6254103,2.28108141 12.1933569,2.18294453 Z M16.8447944,3.57475857 L16.951,3.658 L14.6729316,7.56417273 C14.0483032,6.89822431 13.6028496,6.61241034 13.0965919,6.52824631 L13.0967945,2.17590508 C14.50756,2.2476422 15.7442102,2.73532762 16.8447944,3.57475857 Z M32.7419355,-6.39488462e-14 C33.9890301,-6.39488462e-14 35,0.970049709 35,2.16666667 C35,3.36328362 33.9890301,4.33333333 32.7419355,4.33333333 C31.9207796,4.33333333 31.3244778,4.86717827 30.1421801,6.82992968 L27.3195536,2.98302598 C27.5701352,2.64928153 27.8226382,2.35530059 28.1161114,2.0501634 C29.3760584,0.740140191 30.9013447,-6.39488462e-14 32.7419355,-6.39488462e-14 Z" id="Combined-Shape"></path>
        </g>
    </g>
</svg>