<svg xmlns="http://www.w3.org/2000/svg" width="15.466" height="15.988" viewBox="0 0 15.466 15.988">
  <g id="file" transform="translate(-0.261)">
    <path id="Path" d="M13.319,0V3.652H2.147V0H0V4.726A1.073,1.073,0,0,0,1.075,5.8H14.391a1.073,1.073,0,0,0,1.075-1.073V0Z" transform="translate(0.261 10.189)" fill="#fff"/>
    <path id="Path-2" data-name="Path" d="M3.271,9.827.2,6.113s-.468-.442.039-.442H1.968V.263S1.9,0,2.3,0H4.735c.286,0,.279.222.279.222V5.559h1.6c.615,0,.152.462.152.462S4.15,9.494,3.785,9.858A.341.341,0,0,1,3.271,9.827Z" transform="translate(4.527)" fill="#fff"/>
  </g>
</svg>
