<?xml version="1.0" encoding="UTF-8"?>
<svg width="40px" height="40px" viewBox="0 0 40 40" version="1.1" xmlns="http://www.w3.org/2000/svg" xmlns:xlink="http://www.w3.org/1999/xlink">
    <!-- Generator: Sketch 61.2 (89653) - https://sketch.com -->
    <title>1</title>
    <desc>Created with Sketch.</desc>
    <g id="1" stroke="none" stroke-width="1" fill="none" fill-rule="evenodd">
        <g id="Group" transform="translate(2.500000, 15.000000)" fill="#DF2A27">
            <ellipse id="Oval" cx="17.5" cy="10" rx="17.5" ry="2"></ellipse>
            <g id="Group-6">
                <path d="M31.3207277,1.92374511 L35,9.86842105 L0,9.86842105 L3.67927227,1.92374511 C4.3428535,2.28065763 5.72759738,2.48713069 7.8631956,2.67478342 C10.4128347,2.89881746 13.8433978,3.02631579 17.5,3.02631579 C21.1566022,3.02631579 24.5871653,2.89881746 27.1368044,2.67478342 C29.2724026,2.48713069 30.6571465,2.28065763 31.3207277,1.92374511 Z" id="Oval-Copy-16"></path>
                <path d="M7.85979069,1.5630897 C10.4155111,1.82380711 13.8890713,1.97368421 17.5991221,1.97368421 C21.309173,1.97368421 24.7827332,1.82380711 27.3384536,1.5630897 C28.4356368,1.45116245 29.3295952,1.32182397 29.9683592,1.18421053 C29.3295952,1.04659708 28.4356368,0.917258604 27.3384536,0.805331354 C24.7827332,0.544613939 21.309173,0.394736842 17.5991221,0.394736842 C13.8890713,0.394736842 10.4155111,0.544613939 7.85979069,0.805331354 C6.76260753,0.917258604 5.86864906,1.04659708 5.22988506,1.18421053 C5.86864906,1.32182397 6.76260753,1.45116245 7.85979069,1.5630897 Z" id="Path"></path>
            </g>
        </g>
    </g>
</svg>