<?xml version="1.0" encoding="UTF-8"?>
<svg width="40px" height="40px" viewBox="0 0 40 40" version="1.1" xmlns="http://www.w3.org/2000/svg" xmlns:xlink="http://www.w3.org/1999/xlink">
    <!-- Generator: Sketch 61.2 (89653) - https://sketch.com -->
    <title>7</title>
    <desc>Created with Sketch.</desc>
    <g id="7" stroke="none" stroke-width="1" fill="none" fill-rule="evenodd">
        <g id="Group-2" transform="translate(5.000000, 7.500000)">
            <path d="M11.719176,0.217389019 L18.719176,0.217389019 C20.3760303,0.217389019 21.719176,1.56053477 21.719176,3.21738902 L21.719176,5.21738902 C21.719176,6.87424327 20.3760303,8.21738902 18.719176,8.21738902 L11.719176,8.21738902 C10.0623218,8.21738902 8.71917602,6.87424327 8.71917602,5.21738902 L8.71917602,3.21738902 C8.71917602,1.56053477 10.0623218,0.217389019 11.719176,0.217389019 Z" id="-" stroke="#DF2A27" stroke-width="2"></path>
            <g id="Group-3" transform="translate(0.719176, 5.217389)" fill="#DF2A27">
                <path d="M26,-8.8817842e-16 C27.6568542,-1.19253761e-15 29,1.34314575 29,3 L29,16 C29,17.6568542 27.6568542,19 26,19 L3,19 C1.34314575,19 2.02906125e-16,17.6568542 0,16 L0,3 C-2.02906125e-16,1.34314575 1.34314575,-5.83819232e-16 3,-8.8817842e-16 L26,-8.8817842e-16 Z M14.5,3.23404255 C13.4178204,3.23404255 12.5405405,4.11132244 12.5405405,5.19350201 L12.5405405,5.19350201 L12.54,7.68 L9.01351351,7.68085106 C8.61393952,7.68085106 8.28420115,7.98928589 8.23583652,8.38794385 L8.22972973,8.4893617 L8.22972973,10.9148936 C8.22972973,11.3270734 8.52873163,11.6672144 8.91519734,11.7171048 L9.01351351,11.7234043 L12.54,11.723 L12.5405405,14.2107533 C12.5405405,15.2437429 13.3398803,16.0900367 14.3537632,16.1648382 L14.5,16.1702128 C15.5821796,16.1702128 16.4594595,15.2929329 16.4594595,14.2107533 L16.4594595,14.2107533 L16.459,11.723 L19.9864865,11.7234043 C20.3860605,11.7234043 20.7157988,11.4149694 20.7641635,11.0163115 L20.7702703,10.9148936 L20.7702703,8.4893617 C20.7702703,8.04283361 20.4193583,7.68085106 19.9864865,7.68085106 L16.459,7.68 L16.4594595,5.19350201 C16.4594595,4.16051242 15.6601197,3.31421862 14.6462368,3.23941709 Z" id="Combined-Shape"></path>
            </g>
        </g>
    </g>
</svg>