<svg xmlns="http://www.w3.org/2000/svg" width="29.236" height="23.997" viewBox="0 0 29.236 23.997"><g transform="translate(2.695 4.682)"><path d="M8.084,19.045H2a2,2,0,0,1-2-2V10.228A6.017,6.017,0,0,1,2.476,5.372L8.779.8a4,4,0,0,1,4.737.028l6.107,4.543a6.026,6.026,0,0,1,2.419,4.814v6.861a2,2,0,0,1-2,2H14.294a2.032,2.032,0,0,0,.014-.235V12.618a2,2,0,0,0-2-2H10.071a2,2,0,0,0-2,2v6.191a2.026,2.026,0,0,0,.014.235Z" transform="translate(0.709 0.27)" fill="#df2a27"/></g><path d="M.11,11.062,14.72.056a.277.277,0,0,1,.388.055l.5.664a.277.277,0,0,1-.055.388L.944,12.168a.277.277,0,0,1-.388-.055l-.5-.664A.277.277,0,0,1,.11,11.062Z" transform="translate(0 0)" fill="#df2a27"/><path d="M15.554,11.062a.277.277,0,0,1,.055.388l-.5.664a.277.277,0,0,1-.388.055L.11,1.162A.277.277,0,0,1,.056.774L.556.11A.277.277,0,0,1,.944.056Z" transform="translate(13.572 0)" fill="#df2a27"/></svg>