<svg xmlns="http://www.w3.org/2000/svg" width="23" height="28" viewBox="0 0 23 28"><path d="M16.347,28c.429-.072.93-.682,1.323-1.651a20.268,20.268,0,0,0,1.109-4.882,16.762,16.762,0,0,1,.358-2.082c.036-.215.226-1.3.3-1.621.465-2.477.847-3.979,1.705-5.092a9.007,9.007,0,0,0,1.467-8.041C22,2.692,20.747,1.015,19.137.512a7.588,7.588,0,0,0-6.24.852,1.489,1.489,0,0,1-1.451,0A7.168,7.168,0,0,0,7.19,0,7,7,0,0,0,3.148,1.256C.962,2.589,0,5.708,0,7.359c0,1.759,1.335,3.949,2.479,5.313a42.273,42.273,0,0,1,1.329,5.092c.072.323.233,1.37.269,1.585.143.646.25,1.364.358,2.118a17.338,17.338,0,0,0,1.109,4.846c.25.61.751,1.579,1.323,1.687H6.9c.143-.108.608-.538,1.323-2.513l1.86-5.923c0-.036,0-.036.036-.072a1.637,1.637,0,0,1,3.076,0c0,.036,0,.036.036.072l1.753,5.923A6.034,6.034,0,0,0,16.347,28Z" fill="#df2a27"/></svg>