<svg xmlns="http://www.w3.org/2000/svg" width="36" height="22" viewBox="0 0 36 22"><path d="M19.5,22a15.952,15.952,0,0,1-9.164-2.861,23.042,23.042,0,0,1-6.024-6.3A35.421,35.421,0,0,1,0,3.686l.011-.005a47.434,47.434,0,0,1,5.7-1.838A55.81,55.81,0,0,1,19.5,0a13.813,13.813,0,0,1,7.121,2.031A21.021,21.021,0,0,1,31.789,6.5,29.849,29.849,0,0,1,36,13c-.057-.06-6.194-6.487-7-7a7.885,7.885,0,0,0-2.052-.879,9.684,9.684,0,0,0-7.447-3.5C14.117,1.617,7.006,4.986,5,10A15.269,15.269,0,0,0,19.5,21.382c.281,0,.566-.012.845-.037C20.319,21.786,20.042,22,19.5,22Z" transform="translate(0 0)" fill="#df2a27"/><path d="M9.5,18A9.592,9.592,0,0,0,19,8.319C19,2.973,14.747,0,9.5,0S0,2.973,0,8.319A9.592,9.592,0,0,0,9.5,18Z" transform="translate(10 0)" fill="#df2a27"/><ellipse cx="2.5" cy="3" rx="2.5" ry="3" transform="translate(18 3)" fill="#fff"/></svg>