<svg xmlns="http://www.w3.org/2000/svg" width="34.695" height="34.955" viewBox="0 0 34.695 34.955"><circle cx="0.324" cy="0.324" r="0.324" transform="translate(21.183 34.306)" fill="#df2a27"/><circle cx="0.324" cy="0.324" r="0.324" transform="translate(13.183 34.194)" fill="#df2a27"/><path d="M.033,8.477C1.949,4.121,8.652-.565,10.608.056S12.714,15.531,8.163,18.7c-.971.489-1.634-3.074-3.218-5.763C3.883,11.129-.418,9.573.033,8.477Z" transform="translate(22.791 0)" fill="#df2a27"/><path d="M0,8.461S-8.619-.58-10.575.04-12.68,15.515-8.13,18.681a3.673,3.673,0,0,0,.852.451c1.165.418-.471-2.676,1.383-5.558A15.968,15.968,0,0,1,0,8.461Z" transform="translate(11.871 0.016)" fill="#df2a27"/><path d="M.06.06" transform="translate(8.132 32.39)" fill="none" stroke="#979797" stroke-miterlimit="10" stroke-width="1"/><path d="M18.557,27.415s11.916-8.506,9.476-18.523C25.741.356,19.654,1.056,19.654,1.056A12.644,12.644,0,0,0,14.573,0,12.55,12.55,0,0,0,8.7,1.056C2.806,3.737-.392.752.1,8.892c-.38,3.484-.145,10.887,10.189,18.529l.268-.536s-9.57-8.536-8.4-15.571S7.6,1.066,14.573,1.066s11.738,6.4,12.079,9.686.341,8.5-8.418,16.133C18.332,26.807,18.557,27.415,18.557,27.415Z" transform="translate(3.17 7.421)" fill="#df2a27"/></svg>