<svg xmlns="http://www.w3.org/2000/svg" width="14" height="13" viewBox="0 0 14 13"><g transform="translate(-80 -732)"><path d="M0,0V5.143A.846.846,0,0,0,.833,6H5V0Z" transform="translate(81 739)" fill="#df2a27"/><path d="M6.125,6H.437A.434.434,0,0,1,0,5.57V4.281a.868.868,0,0,1,.875-.86H3.643a3.427,3.427,0,0,1-.489-.384,1.776,1.776,0,0,1,0-2.529,1.875,1.875,0,0,1,2.566,0A4.724,4.724,0,0,1,6.969,3.422h.063A4.707,4.707,0,0,1,8.278.508a1.874,1.874,0,0,1,2.567,0,1.775,1.775,0,0,1,0,2.529,3.412,3.412,0,0,1-.489.384h2.768a.869.869,0,0,1,.876.86V5.57a.435.435,0,0,1-.438.43H7.875V4.281H6.125V6ZM9.561.852a.945.945,0,0,0-.663.263c-.59.583-1.175,2.072-.972,2.279a.281.281,0,0,0,.161.029,4.334,4.334,0,0,0,2.137-.991.923.923,0,0,0,0-1.317A.947.947,0,0,0,9.561.852ZM4.439.843a.943.943,0,0,0-.663.271.926.926,0,0,0,0,1.317,4.333,4.333,0,0,0,2.136.991.289.289,0,0,0,.162-.029c.2-.206-.382-1.7-.972-2.279A.938.938,0,0,0,4.439.843Z" transform="translate(80 732)" fill="#df2a27"/><path d="M0,0V6H4.167A.846.846,0,0,0,5,5.143V0Z" transform="translate(88 739)" fill="#df2a27"/></g></svg>