<svg xmlns="http://www.w3.org/2000/svg" width="72.945" height="92.344" viewBox="0 0 72.945 92.344"><g transform="translate(43.5) rotate(30)"><path d="M.028,3.064A2.61,2.61,0,0,1,2.544,0H8.652a2.61,2.61,0,0,1,2.516,3.064L9.97,10.6l1.237,8.38a2.609,2.609,0,0,1-2.521,3.034H2.51A2.609,2.609,0,0,1-.011,18.979L1.226,10.6Z" transform="translate(11.805 38.1)" fill="#df2a27"/><rect width="2.55" height="6.152" transform="translate(16.15 28.121)" fill="#df2a27"/><ellipse cx="1.275" cy="1.318" rx="1.275" ry="1.318" transform="translate(16.15 26.364)" fill="#df2a27"/><path d="M3.764,7.428c2.076,0,3.886,2.2,3.886-1.2S5.84,0,3.764,0,0,3,0,6.23,1.688,7.428,3.764,7.428Z" transform="translate(13.6 28.922)" fill="#df2a27"/><rect width="11.05" height="2.636" rx="1.318" transform="translate(11.9 34.273)" fill="#df2a27"/></g></svg>