<svg xmlns="http://www.w3.org/2000/svg" viewBox="0 0 322.14 19.19"><defs><style>.cls-1{fill:none}.cls-2{fill:#fff}.cls-3{fill:#231f20}.cls-4{clip-path:url(#clip-path)}.cls-5{fill:#eb2227}</style><clipPath id="clip-path"><path class="cls-1" d="M0 0h236.67v19.19H0z"/></clipPath></defs><title>Asset 2</title><g id="Layer_2" data-name="Layer 2"><g id="Layer_1-2" data-name="Layer 1"><path class="cls-2" d="M0 0h108.66v19.19H0z"/><path class="cls-3" d="M19.51.46h88.73v18.3H19.51z"/><g class="cls-4"><path class="cls-2" d="M26.91 4.68a4.59 4.59 0 0 1 1-.14 2.35 2.35 0 0 1 1.21.32 1.91 1.91 0 0 1 .81.91 3.16 3.16 0 0 1 .3 1.37 2.44 2.44 0 0 1-.61 1.73 1.86 1.86 0 0 1-1.43.66 4.69 4.69 0 0 1-.58 0 6.43 6.43 0 0 1-.67-.1zm3.36-.84a7.79 7.79 0 0 0-2.57-.34h-4.53v.66h.62a1.13 1.13 0 0 1 .89.33c.07.08.19.37.19 1.29v7.73a2.74 2.74 0 0 1-.14 1.19 1 1 0 0 1-.94.42h-.62v.66h5.44v-.66H28a1.06 1.06 0 0 1-.87-.33c-.09-.08-.21-.36-.21-1.28v-3.27c.3.06.6.12.87.15a6.65 6.65 0 0 0 .95.07 3.94 3.94 0 0 0 2.82-1 3.34 3.34 0 0 0 1-2.51 3 3 0 0 0-.67-2 3.61 3.61 0 0 0-1.62-1.17m13.33-.36v.67h.62a1.12 1.12 0 0 1 .88.33c.08.08.2.37.2 1.28v4.83a7.34 7.34 0 0 1-.3 2.63 2.54 2.54 0 0 1-1.19 1.22 4.08 4.08 0 0 1-2 .49 3.11 3.11 0 0 1-1.47-.31 2.22 2.22 0 0 1-.9-.77 3.14 3.14 0 0 1-.44-1.32 12.09 12.09 0 0 1-.13-1.57V5.7A2.34 2.34 0 0 1 39 4.48a1 1 0 0 1 .89-.39h.62v-.67h-5.43v.67h.61a1 1 0 0 1 .83.28 2.14 2.14 0 0 1 .26 1.33v4.66a10 10 0 0 0 .3 3 3.83 3.83 0 0 0 1.49 1.9 5.56 5.56 0 0 0 3.06.71 5.18 5.18 0 0 0 2.94-.74A3.71 3.71 0 0 0 46 13.46a8.85 8.85 0 0 0 .36-2.83V5.79a2.36 2.36 0 0 1 .16-1.18 1 1 0 0 1 .93-.52h.61v-.67zm11.26 1.24a6.45 6.45 0 0 1 1.2-.15 2.31 2.31 0 0 1 1.71.65 2.28 2.28 0 0 1 .64 1.69 2.19 2.19 0 0 1-.79 1.75 3.66 3.66 0 0 1-2.44.7h-.32zm6.82 10a6 6 0 0 1-1.41-1.53L58 9.9a4.09 4.09 0 0 0 2-1.14 3 3 0 0 0 .76-2 2.87 2.87 0 0 0-.67-1.89 3.35 3.35 0 0 0-1.59-1.09 10.53 10.53 0 0 0-2.86-.29h-4.52v.67h.62a1.11 1.11 0 0 1 .88.33c.07.08.2.36.2 1.28v7.73a2.53 2.53 0 0 1-.15 1.2 1 1 0 0 1-.93.42h-.62v.66h5.44v-.66h-.63a1.09 1.09 0 0 1-.87-.33c-.07-.08-.2-.37-.2-1.29v-3.3h.97l4.05 5.59h3.46v-.65h-.15a3.59 3.59 0 0 1-1.51-.47M66.42 3.5v.66H67a1.59 1.59 0 0 1 .73.19.69.69 0 0 1 .28.29 4 4 0 0 1 .1 1.14v7.72c0 .89-.11 1.17-.18 1.26a1.09 1.09 0 0 1-.93.36h-.59v.67h5.44v-.67h-.6a1.38 1.38 0 0 1-.71-.19.67.67 0 0 1-.29-.29 4 4 0 0 1-.1-1.14V5.78c0-.88.11-1.17.18-1.25a1.08 1.08 0 0 1 .92-.37h.6V3.5zm22.88 0h-4.5v.66h.59a1.13 1.13 0 0 1 .91.32c.07.08.2.36.2 1.27v6.4L79.39 3.5h-3.5v.66h.17a2.53 2.53 0 0 1 .73.08 3.08 3.08 0 0 1 .74.33 5.82 5.82 0 0 1 .71.74v8.22a2.49 2.49 0 0 1-.16 1.2 1.07 1.07 0 0 1-1 .39h-.58v.66H81v-.66h-.6a1.17 1.17 0 0 1-.91-.32c-.07-.08-.19-.35-.19-1.27V6.65L87 16h.56V5.75c0-.84.1-1.11.17-1.2a1.06 1.06 0 0 1 .94-.39h.59zm8.26 3.07l1.73 4.21h-3.56zm6.86 8.55a1.72 1.72 0 0 1-1-.36 4.23 4.23 0 0 1-.87-1.49l-4.11-10h-.58l-4.36 9.88a5.15 5.15 0 0 1-1 1.66 1.72 1.72 0 0 1-.88.31h-.14v.64h4.09v-.66h-.16a2 2 0 0 1-1-.24.43.43 0 0 1-.2-.34 2.68 2.68 0 0 1 .29-1l.77-1.76h4.43l.66 1.61a3.39 3.39 0 0 1 .34 1.15.45.45 0 0 1-.18.36 1.62 1.62 0 0 1-.87.2h-.16v.66h5.09v-.66z"/><path class="cls-5" d="M.54.46h18.31v18.3H.54z"/><path class="cls-2" d="M1.19 1.11h16.99v17H1.19z"/><path class="cls-5" d="M1.84 12.22h5.23v5.23H1.84zm10.46 0h5.23v5.23H12.3zM7.07 6.99h5.23v5.23H7.07zM1.84 1.76h5.23v5.23H1.84zm10.46 0h5.23v5.23H12.3z"/><path class="cls-2" d="M110.42 1.39h.12c.14 0 .25 0 .25-.16s-.07-.17-.23-.17a.41.41 0 0 0-.14 0zm0 .61h-.25V.91a3.7 3.7 0 0 1 .42 0A.61.61 0 0 1 111 1a.31.31 0 0 1 .11.24.29.29 0 0 1-.22.26c.1 0 .15.12.19.26a.86.86 0 0 0 .08.27h-.27a.88.88 0 0 1-.08-.27c0-.11-.09-.16-.23-.16h-.12zm-.66-.56a.84.84 0 1 0 1.67 0 .84.84 0 1 0-1.67 0m2 0a1.12 1.12 0 0 1-2.23 0 1.12 1.12 0 0 1 2.23 0"/></g><path class="cls-2" d="M312.34 12.85c0 .71-.12.81-.8.86v.41h2.72v-.41c-.68-.05-.84-.15-.84-.86V9.2c0-.7.16-.81.84-.86v-.41h-2a1.39 1.39 0 0 1-.14.73l-2 3.24a3.55 3.55 0 0 0-.52 1.1h-.06a9.61 9.61 0 0 0 .13-1.62V9.2c0-.7.12-.81.81-.86v-.41h-2.73v.41c.69.05.84.16.84.86v3.65c0 .71-.15.81-.84.86v.41h2a1.39 1.39 0 0 1 .15-.73l2-3.24a3.62 3.62 0 0 0 .54-1.05h.06a13.56 13.56 0 0 0-.13 1.9zm-33.4-3.65v1.53h-2.68V9.2c0-.7.12-.81.81-.86v-.41h-2.74v.41c.68.05.84.16.84.86v3.65c0 .71-.16.81-.84.86v.41h2.74v-.41c-.69-.05-.81-.15-.81-.86v-1.54h2.68v1.54c0 .71-.12.81-.8.86v.41h2.74v-.41c-.69-.05-.84-.15-.84-.86V9.2c0-.7.15-.81.84-.86v-.41h-2.74v.41c.68.05.8.16.8.86m-8.66 2.34l1 1.55a.92.92 0 0 1 .17.38c0 .16-.18.22-.6.24v.41h2.67v-.41c-.56-.05-.65-.17-1.05-.75l-1.32-2 1-1.87c.36-.57.53-.7 1.05-.76v-.4h-2.12v.41c.47 0 .55.13.55.25a.68.68 0 0 1-.14.37l-.75 1.24L270 9a.88.88 0 0 1-.16-.39c0-.15.15-.21.54-.23v-.45h-2.68v.41c.57.06.69.14 1.11.76l1.09 1.9-1.29 2c-.39.56-.51.7-1 .75v.41h2.19v-.41c-.41 0-.59-.12-.59-.3a.67.67 0 0 1 .12-.32zm-15.37 1.94a5.1 5.1 0 0 0 .63-1.34 9.76 9.76 0 0 0 .4-3.62h2v5h-3.06zm-1 2.72c0-1.3.31-2.08.83-2.08h4.11c.48 0 .48.48.48 2.08h.59l.29-2.08v-.56H260c-.77 0-.92-.08-.92-.72V9.25c0-.65.15-.85.92-.87V8h-5.67v.42c.77 0 .92.22.92.87a6 6 0 0 1-.74 3.52 2 2 0 0 1-.75.79h-.48v2.6zm-25.19-2.08H238v-.4c-.69 0-.85-.15-.85-.86V9.2c0-.7.16-.81.85-.86v-.41h-2.74v.41c.68.05.8.16.8.86v4.34h-2.15V9.16c0-.71.11-.83.74-.86v-.41h-2.59v.41c.64 0 .74.15.74.86v4.38h-2.15V9.16c0-.71.12-.81.81-.86v-.41h-2.74v.41c.68 0 .84.15.84.86v3.7c0 .71-.16.82-.84.86zm-9-1.32c0 .68-.1.89-.91.91v.41h2.93v-.41c-.8 0-.91-.23-.91-.91V9.21c0-.68.11-.89.91-.91v-.42h-2.93v.42c.81 0 .91.23.91.91v1.49h-2.88V9.21c0-.68.11-.89.91-.91v-.42h-2.95v.42c.81 0 .91.23.91.91v3.59c0 .68-.1.89-.91.91v.41h2.93v-.41c-.8 0-.91-.23-.91-.91v-1.55h2.88zM211 10.48h-5.78v.61H211zm-9.53 5.43l.29-1.79v-.56h-.32c-.7 0-.8-.29-.8-.89V9.29c0-.69.11-.89.92-.91V8h-2.96v.42c.8 0 .89.22.89.91v4.27h-2.79V9.29c0-.69.08-.89.89-.91V8h-2.91v.42c.81 0 .91.22.91.91v3.47c0 .68-.1.89-.91.91v.41h5.67c.48 0 .48.19.48 1.79zm-21-1.79h2.27v-.41c-.59 0-.74-.13-.74-.67v-.63l.11-2.36v-1h.07a8.53 8.53 0 0 0 .34 1.8l1.25 3.27h.63l1.28-3.81a4.6 4.6 0 0 0 .32-1.25v1l.1 2.34v.65c0 .54-.15.64-.74.67v.41h2.67v-.41c-.69-.05-.81-.15-.85-.86l-.15-3.31v-.48c0-.58.21-.67.85-.72v-.42h-2.11l-1.16 3.49a6 6 0 0 0-.39 1.32h-.07a5.53 5.53 0 0 0-.37-1.34l-1.18-3.47h-2v.41c.64.05.84.14.84.72v.33l-.17 3.46c0 .71-.16.81-.84.86zm-9.9-5.61h.69c.68 0 .88.31 1.07 1.33h.54L172.69 8h-5.53l-.1 1.88h.54c.2-1 .4-1.33 1.07-1.33h.7v4.25c0 .68-.11.89-.91.91v.41h2.93v-.41c-.81 0-.91-.23-.91-.91zm-8.95 5.61a1.26 1.26 0 0 1 .23-.83l1.4-2.29a18 18 0 0 0 1.2-1.74h.07a11.28 11.28 0 0 0-.13 2v1.58c0 .64-.12.85-.8.87v.41h2.81v-.41c-.77 0-.91-.23-.91-.87V9.25c0-.65.14-.85.91-.87V8h-2a1.28 1.28 0 0 1-.23.83l-1.49 2a14 14 0 0 0-1.2 2h-.06a16.31 16.31 0 0 0 .12-2.22V9.25c0-.65.12-.85.81-.87V8h-2.85v.42c.77 0 .92.22.92.87v3.59c0 .64-.15.85-.92.87v.41zm-5.06-1.32c0 .68-.08.89-.88.91v.41h2.9v-.41c-.8 0-.91-.23-.91-.91V9.29c0-.69.11-.89.91-.91V8h-6.82v.42c.8 0 .91.22.91.91v3.47c0 .68-.11.89-.91.91v.41h2.91v-.41c-.81 0-.89-.23-.89-.91V8.52h2.78zM148 14.12v-.41c-.8 0-.91-.23-.91-.91V9.29c0-.69.11-.89.91-.91V8h-2.79v.42c.72 0 .77.22.77.91v4.27h-2.24V9.29c0-.69 0-.89.76-.91V8h-2.62v.42c.73 0 .77.22.77.91v4.27h-2.24V9.29c0-.69 0-.89.76-.91V8h-2.76v.42c.81 0 .91.22.91.91v3.47c0 .68-.1.89-.91.91v.41zm-21.09-4.6V6.43h1.19c1.16 0 1.59.42 1.59 1.59 0 1-.38 1.5-1.54 1.5zm0 4V10.1h1.32c1.44 0 1.83.45 1.83 1.68s-.34 1.75-1.62 1.75zm-2.1.59h3.55c1.55 0 2.9-.67 2.9-2.27a2.06 2.06 0 0 0-1.94-2.13v-.04a1.7 1.7 0 0 0 1.52-1.79c0-1.32-.87-2-3-2h-3v.42c.8 0 1 .23 1 .91v5.62c0 .68-.16.89-1 .91zm10.9-3.02v1.51a1.56 1.56 0 0 1-1.31.87c-.69 0-1-.26-1-1.12s.59-1.28 2-1.28h.42m1.07 1.31c0-1.09.05-2.12.05-2.48 0-1.41-.75-2-2.1-2a5.15 5.15 0 0 0-2.24.61v1.07h.75a1.22 1.22 0 0 1 1.4-1.08c.85 0 1.09.45 1.09 1.49v.53a3 3 0 0 0-.42 0c-1.88 0-3.15.5-3.15 1.94a1.7 1.7 0 0 0 1.94 1.72 1.89 1.89 0 0 0 1.64-1c.06.5.24.85 1.1.85a2.62 2.62 0 0 0 .83-.13v-.4c-.78-.06-.89-.22-.89-1.12m54.52-3.9c.91 0 1.28.57 1.28 2H190c.08-1.54.58-2 1.4-2m.48 4.93c-1.27 0-1.87-.56-1.89-2.31h3.83v-.32c0-1.83-.89-2.87-2.4-2.87s-2.58 1.14-2.58 3.1 1 3.12 2.75 3.12a3.53 3.53 0 0 0 2.14-.81l-.26-.41a3.31 3.31 0 0 1-1.59.5m-15.44-4.94c1.32 0 1.8 1 1.8 2.44 0 1.76-.54 2.7-1.8 2.7s-1.79-.94-1.79-2.7c0-1.4.46-2.44 1.79-2.44m0 5.65a2.8 2.8 0 0 0 3-3.11 3 3 0 1 0-5.92 0 2.8 2.8 0 0 0 3 3.11m49.38-3.03v1.5a1.6 1.6 0 0 1-1.31.88c-.7 0-1-.27-1-1.12s.59-1.29 2-1.29a3 3 0 0 1 .42 0m.99 1.34c0-1.1.05-2.13.05-2.49 0-1.41-.74-2-2.09-2a5.34 5.34 0 0 0-2.25.61v1.05h.76a1.21 1.21 0 0 1 1.39-1.08c.86 0 1.1.46 1.1 1.49v.53h-.42c-1.89 0-3.15.49-3.15 1.93a1.7 1.7 0 0 0 1.93 1.72 1.91 1.91 0 0 0 1.65-1c.06.5.24.85 1.09.85a2.57 2.57 0 0 0 .83-.13v-.4c-.78-.06-.89-.21-.89-1.11m37-3.9c1.32 0 1.8 1 1.8 2.44 0 1.76-.54 2.69-1.8 2.69s-1.79-.93-1.79-2.69c0-1.41.45-2.44 1.79-2.44m0 5.64a2.79 2.79 0 0 0 3-3.11 3 3 0 1 0-5.91 0 2.79 2.79 0 0 0 3 3.1m20.18-5.61c1.32 0 1.8 1 1.8 2.44 0 1.76-.54 2.69-1.8 2.69s-1.79-.93-1.79-2.69c0-1.41.46-2.44 1.79-2.44m0 5.64a2.79 2.79 0 0 0 3-3.1 3 3 0 1 0-5.92 0 2.79 2.79 0 0 0 3 3.1m6.56-5.68c1 0 1.41.29 1.41 1.07s-.38 1.12-1.37 1.12h-.74V8.45zm.06 2.78c1.26 0 1.61.29 1.61 1.16s-.35 1.14-1.46 1.14h-.91v-2.3zm-1.86-2v3.56c0 .75-.15.87-.84.92v.43h2.83c1.48 0 2.63-.2 2.63-1.74 0-.88-.52-1.38-1.59-1.53v-.07a1.34 1.34 0 0 0 1.3-1.35c0-1.16-.62-1.58-2.67-1.58h-2.5v.43c.69.06.84.17.84.92m16.07 3.49c0 .69-.14 1-.94 1v.41h2.93v-.41c-.8 0-.88-.32-.88-1v-3.5c0-.69.11-.89.91-.92v-.42h-2.93v.42c.81 0 .91.23.91.92v1.41h-2.88V9.21c0-.69.11-.89.91-.92v-.42h-2.93v.42c.81 0 .91.23.91.92v3.5c0 .69-.14 1-.94 1v.41h2.93v-.41c-.8 0-.88-.32-.88-1v-1.55h2.88zm-63.77-4.24c.91 0 1.29.57 1.29 2H240c.08-1.53.57-2 1.39-2m.48 4.93c-1.26 0-1.86-.56-1.89-2.31h3.84v-.32c0-1.83-.89-2.87-2.4-2.87s-2.57 1.1-2.57 3.1 1 3.12 2.75 3.12a3.44 3.44 0 0 0 2.14-.82l-.25-.4a3.31 3.31 0 0 1-1.6.5m8.17-4.93c1 0 1.42.29 1.42 1.06s-.38 1.12-1.37 1.12h-.74V8.47zm.06 2.77c1.26 0 1.61.29 1.61 1.15s-.35 1.15-1.45 1.15h-.91v-2.3zm-1.85-2v3.55c0 .75-.15.86-.84.91v.43h2.82c1.48 0 2.64-.2 2.64-1.74 0-.87-.52-1.37-1.59-1.52a1.36 1.36 0 0 0 1.3-1.35c0-1.16-.63-1.57-2.67-1.57h-2.5v.43c.69.05.84.16.84.91m48.78-.81c.92 0 1.29.57 1.29 2h-2.68c.09-1.54.58-2 1.39-2m.49 4.93c-1.27 0-1.87-.56-1.89-2.31h3.83v-.32c0-1.83-.89-2.87-2.4-2.87s-2.59 1.14-2.59 3.1 1 3.12 2.76 3.12a3.53 3.53 0 0 0 2.14-.81l-.26-.41a3.31 3.31 0 0 1-1.59.5m19.33-4.9c.91 0 1.29.56 1.29 2h-2.69c.09-1.54.58-2 1.4-2m.48 4.93c-1.26 0-1.86-.57-1.89-2.31h3.84v-.33c0-1.82-.89-2.87-2.41-2.87s-2.58 1.14-2.58 3.1 1 3.13 2.75 3.13a3.54 3.54 0 0 0 2.14-.82l-.25-.41a3.22 3.22 0 0 1-1.6.51m4.79-.2a.86.86 0 1 0-.85.88.84.84 0 0 0 .85-.88"/></g></g></svg>