<svg xmlns="http://www.w3.org/2000/svg" width="17" height="23" viewBox="0 0 17 23"><g transform="translate(0)"><ellipse cx="5.885" cy="5.75" rx="5.885" ry="5.75" transform="translate(2.615 1.917)" fill="#df2a27"/><path d="M8.5-7c4.694,0,8.5.467,8.5,2.236S13.194-2.528,8.5-2.528,0-3,0-4.764,3.806-7,8.5-7Z" transform="translate(0 21.694)" fill="#df2a27"/><path d="M1.308,0H13.077l1.308,8.944H0Z" transform="translate(1.308 7.667)" fill="#df2a27"/><path d="M2.615,2.556A2.586,2.586,0,0,0,5.231,0H0A2.586,2.586,0,0,0,2.615,2.556Z" transform="translate(5.885 20.444)" fill="#df2a27"/><rect width="2.615" height="5.111" rx="1.308" transform="translate(7.192)" fill="#df2a27"/></g></svg>