<?xml version="1.0" encoding="utf-8"?>
<!-- Generator: Adobe Illustrator 24.0.1, SVG Export Plug-In . SVG Version: 6.00 Build 0)  -->
<svg version="1.1" id="Capa_1" xmlns="http://www.w3.org/2000/svg" xmlns:xlink="http://www.w3.org/1999/xlink" x="0px" y="0px"
	 viewBox="0 0 496.94 496.94" style="enable-background:new 0 0 496.94 496.94;" xml:space="preserve">
<g>
	<g>
		<g>
			<path fill="#e2bc74" d="M475.3,106.92l-12.05-3.76c-3.01-0.75-6.02-1.51-9.79-1.51c-13.55,0-25.6,9.04-30.12,21.83l-6.78,20.33v-15.06V128
				c0-2.26-1.51-4.52-3.01-6.02L290.08,2.26C288.57,0.75,286.31,0,284.8,0H43.11c-4.52,0-7.53,3.01-7.53,7.53v23.34H7.72
				c-4.52,0-7.53,3.01-7.53,7.53v451.01c0,4.52,3.01,7.53,7.53,7.53h365.93c4.52,0,7.53-3.01,7.53-7.53v-23.34h27.86
				c4.52,0,7.53-3.01,7.53-7.53V356.89l21.08-28.61l0.75-2.26l56.47-179.95C500.9,129.51,491.86,112.19,475.3,106.92z M292.33,25.6
				l98.64,94.87h-98.64V25.6z M366.12,481.88H15.25V45.93h20.33v412.61c0,4.52,3.01,7.53,7.53,7.53h323.01L366.12,481.88
				L366.12,481.88z M402.26,451.01h-0.75H50.64V15.06h226.63V128c0,4.52,3.01,7.53,7.53,7.53h117.46V192l-35.39,111.43v2.26
				l1.51,95.62c0,3.01,2.26,6.02,5.27,6.78c3.01,0.75,6.78,0,8.28-3.01l20.33-27.11L402.26,451.01L402.26,451.01z M382.69,377.98
				l-1.51-62.49l37.65,12.05L382.69,377.98z M481.32,141.55l-54.21,172.42l-43.67-14.31L437.65,128
				c3.01-8.28,12.05-13.55,20.33-10.54l12.05,3.76C479.06,123.48,484.33,133.27,481.32,141.55z"/>
			<path fill="#e2bc74" d="M101.84,135.53h108.42c4.52,0,7.53-3.01,7.53-7.53V51.2c0-4.52-3.01-7.53-7.53-7.53H101.84c-4.52,0-7.53,3.01-7.53,7.53
				V128C94.31,131.76,98.08,135.53,101.84,135.53z M109.37,58.73h93.36v61.74h-93.36V58.73z"/>
			<path fill="#e2bc74" d="M86.78,206.31h228.89c4.52,0,7.53-3.01,7.53-7.53c0-4.52-3.01-7.53-7.53-7.53H86.78c-4.52,0-7.53,3.01-7.53,7.53
				C79.25,203.29,82.26,206.31,86.78,206.31z"/>
			<path fill="#e2bc74" d="M86.78,261.27h228.89c4.52,0,7.53-3.01,7.53-7.53s-3.01-7.53-7.53-7.53H86.78c-4.52,0-7.53,3.01-7.53,7.53
				S82.26,261.27,86.78,261.27z"/>
			<path fill="#e2bc74" d="M86.78,316.23h228.89c4.52,0,7.53-3.01,7.53-7.53s-3.01-7.53-7.53-7.53H86.78c-4.52,0-7.53,3.01-7.53,7.53
				S82.26,316.23,86.78,316.23z"/>
			<path fill="#e2bc74" d="M322.45,363.67c0-4.52-3.01-7.53-7.53-7.53H86.78c-4.52,0-7.53,3.01-7.53,7.53s3.01,7.53,7.53,7.53h228.89
				C319.44,371.2,322.45,367.43,322.45,363.67z"/>
			<path fill="#e2bc74" d="M347.3,411.11H233.6c-4.52,0-7.53,3.01-7.53,7.53s3.01,7.53,7.53,7.53h112.94c4.52,0,7.53-3.01,7.53-7.53
				S351.06,411.11,347.3,411.11z"/>
		</g>
	</g>
</g>
</svg>
