<?xml version="1.0" encoding="utf-8"?>
<!-- Generator: Adobe Illustrator 24.0.1, SVG Export Plug-In . SVG Version: 6.00 Build 0)  -->
<svg version="1.1" id="Capa_1" xmlns="http://www.w3.org/2000/svg" xmlns:xlink="http://www.w3.org/1999/xlink" x="0px" y="0px"
	 viewBox="0 0 49.64 49.64" style="enable-background:new 0 0 49.64 49.64;" xml:space="preserve">
<style type="text/css">
	.st0{fill:#e2bc74;}
</style>
<g>
	<path fill="#e2bc74" d="M44.12,11.85c-0.01-0.01-0.02-0.02-0.03-0.03c-0.03-0.05-0.07-0.09-0.11-0.12c-0.01-0.01-0.02-0.02-0.04-0.03
		c-0.07-0.05-0.14-0.09-0.22-0.11L23.07,6.72c-0.11-0.02-0.23-0.02-0.34,0.01L8,11.57c-0.04,0.02-0.07,0.04-0.11,0.06
		c-0.02,0.01-0.05,0.02-0.07,0.03c-0.01,0.01-0.01,0.01-0.01,0.02c-0.01,0.01-0.02,0.01-0.02,0.01l-7.57,6.81
		c-0.22,0.2-0.27,0.53-0.12,0.79c0.11,0.19,0.32,0.3,0.54,0.3c0.08,0,0.15-0.01,0.22-0.04l6.73-2.51v20.16
		c0,0.29,0.19,0.53,0.47,0.6L28,42.91c0.05,0.01,0.1,0.02,0.16,0.02c0.07,0,0.14-0.01,0.2-0.03l14.93-5.09
		c0.25-0.08,0.42-0.32,0.42-0.59V24.16l5.5-1.9c0.18-0.06,0.31-0.2,0.38-0.37s0.05-0.37-0.04-0.53L44.12,11.85z M7.57,15.72
		l-4.09,1.52l4.09-3.68V15.72z M27.53,41.51L8.82,36.73V12.98l18.71,5.01V41.51z M28.14,16.86L10.39,12.1l12.57-4.12l18.38,4.3
		L28.14,16.86z M42.47,36.77l-13.69,4.67V18.82l5.61,8.09c0.12,0.17,0.31,0.27,0.51,0.27c0.06,0,0.13-0.01,0.21-0.03l7.36-2.55
		V36.77L42.47,36.77z M35.15,25.8l-5.62-8.1l13.76-4.77l4.81,8.39L35.15,25.8z"/>
</g>
<g>
	<g>
		<path class="st0" d="M15.56,26.03c-1.14-0.29-1.97-1.79-1.86-3.35c0.11-1.56,1.14-2.59,2.28-2.3c1.14,0.29,1.97,1.79,1.86,3.35
			C17.72,25.29,16.7,26.32,15.56,26.03z M15.94,20.83c-0.91-0.23-1.72,0.65-1.82,1.96c-0.1,1.31,0.56,2.57,1.47,2.8
			c0.91,0.23,1.72-0.65,1.82-1.96C17.51,22.31,16.85,21.06,15.94,20.83z"/>
	</g>
	<g>
		<path class="st0" d="M20.33,35.54c-0.56-0.14-1.01-0.59-1.5-1.07c-0.29-0.29-0.59-0.58-0.92-0.83c-0.05-0.02-0.25-0.1-0.56-0.18
			c-0.28-0.07-0.42-0.08-0.44-0.08c-0.35,0.06-0.7,0.19-1.04,0.32c-0.58,0.21-1.07,0.4-1.63,0.26c-0.28-0.07-0.54-0.22-0.77-0.45
			c-0.55-0.54-0.84-1.3-0.82-2.14c0.02-0.77,0.31-1.54,0.81-2.15c0.05-0.06,0.11-0.12,0.17-0.17c0.02-0.02,0.07-0.06,0.08-0.07
			c0.61-1,2.02-1.88,4.13-1.35l0.08,0.02c2.14,0.58,3.38,2.19,3.78,3.41c0.01,0.03,0.04,0.09,0.07,0.14c0.06,0.1,0.1,0.19,0.14,0.28
			c0.76,1.84,0.38,3.66-0.84,4.06C20.82,35.59,20.58,35.6,20.33,35.54z M17.38,33.01c0.31,0.08,0.6,0.18,0.7,0.24
			c0.39,0.29,0.7,0.6,1.01,0.9c0.44,0.43,0.84,0.84,1.28,0.95c0.18,0.04,0.35,0.04,0.52-0.02c1.01-0.33,1.3-1.9,0.64-3.49
			c-0.03-0.07-0.07-0.14-0.11-0.23c-0.05-0.09-0.09-0.16-0.11-0.24c-0.36-1.08-1.48-2.53-3.42-3.05l-0.08-0.02
			c-1.92-0.49-3.18,0.3-3.73,1.2c-0.03,0.05-0.08,0.09-0.14,0.15c-0.05,0.04-0.09,0.08-0.13,0.13c-0.45,0.55-0.71,1.23-0.73,1.91
			c-0.02,0.7,0.21,1.32,0.65,1.74c0.17,0.16,0.35,0.27,0.55,0.32c0.43,0.11,0.88-0.06,1.39-0.25c0.36-0.13,0.72-0.27,1.13-0.34
			C16.89,32.9,17.11,32.94,17.38,33.01z"/>
	</g>
	<g>
		<path class="st0" d="M20.23,27.22c-1.14-0.29-1.97-1.79-1.86-3.35c0.11-1.56,1.14-2.59,2.28-2.3c1.14,0.29,1.97,1.79,1.86,3.35
			C22.39,26.47,21.37,27.5,20.23,27.22z M20.61,22.01c-0.91-0.23-1.72,0.65-1.82,1.96c-0.1,1.31,0.56,2.57,1.47,2.8
			c0.91,0.23,1.72-0.65,1.82-1.96C22.18,23.5,21.52,22.24,20.61,22.01z"/>
	</g>
	<g>
		<path class="st0" d="M23.52,31.7c-1.07-0.27-1.83-1.62-1.72-3.06c0.11-1.45,1.03-2.36,2.11-2.09c1.07,0.27,1.83,1.62,1.73,3.06
			C25.52,31.06,24.6,31.98,23.52,31.7z M23.87,26.99c-0.84-0.21-1.56,0.56-1.65,1.76c-0.09,1.2,0.5,2.3,1.33,2.51
			c0.84,0.21,1.56-0.56,1.65-1.76C25.29,28.31,24.71,27.2,23.87,26.99z"/>
	</g>
	<g>
		<path class="st0" d="M12,28.78c-1.07-0.27-1.83-1.62-1.73-3.06c0.11-1.45,1.03-2.36,2.11-2.09c1.07,0.27,1.83,1.62,1.73,3.06
			C14,28.14,13.08,29.06,12,28.78z M12.35,24.07c-0.84-0.21-1.56,0.56-1.65,1.76c-0.09,1.2,0.5,2.3,1.33,2.51
			c0.84,0.21,1.56-0.56,1.65-1.76C13.77,25.39,13.19,24.28,12.35,24.07z"/>
	</g>
</g>
</svg>
