<?xml version="1.0" encoding="utf-8"?>
<!-- Generator: Adobe Illustrator 24.0.1, SVG Export Plug-In . SVG Version: 6.00 Build 0)  -->
<svg version="1.1" id="Capa_1" xmlns="http://www.w3.org/2000/svg" xmlns:xlink="http://www.w3.org/1999/xlink" x="0px" y="0px"
	 viewBox="0 0 64 64" style="enable-background:new 0 0 64 64;" xml:space="preserve">
<g>
	<path d="M64,29.7c0-3.58-2.92-6.5-6.5-6.5h-5.26L40.46,2.81c-0.53-0.92-1.4-1.59-2.43-1.86S35.92,0.81,35,1.34
		c-0.92,0.53-1.59,1.4-1.86,2.43C32.86,4.8,33,5.88,33.53,6.81L43,23.2H21l9.46-16.39c0.53-0.93,0.68-2,0.4-3.04
		C30.59,2.74,29.92,1.88,29,1.34c-0.92-0.54-2-0.68-3.03-0.4c-1.03,0.28-1.9,0.94-2.43,1.86L11.76,23.2H6.5
		c-3.58,0-6.5,2.92-6.5,6.5c0,2.72,1.68,5.06,4.07,6.02L7.5,58.93c0.36,2.43,2.49,4.27,4.95,4.27h38.22c2.41,0,4.48-1.72,4.92-4.09
		l4.33-23.38C62.31,34.76,64,32.43,64,29.7z M35.07,4.29c0.14-0.52,0.47-0.95,0.93-1.21c0.31-0.18,0.65-0.27,1-0.27
		c0.17,0,0.35,0.02,0.52,0.07c0.52,0.14,0.95,0.47,1.21,0.93l12,20.78c0.27,0.46,0.34,1,0.2,1.52c-0.14,0.52-0.47,0.95-0.93,1.21
		c-0.46,0.27-1,0.34-1.52,0.2c-0.52-0.14-0.95-0.47-1.21-0.93l-12-20.78C35,5.34,34.93,4.8,35.07,4.29z M13.27,24.59l12-20.78
		c0.27-0.46,0.7-0.79,1.21-0.93C26.65,2.83,26.83,2.8,27,2.8c0.35,0,0.69,0.09,1,0.27c0.46,0.27,0.79,0.7,0.93,1.21
		s0.07,1.05-0.2,1.52l-12,20.78c-0.27,0.46-0.7,0.79-1.21,0.93c-0.52,0.14-1.06,0.07-1.52-0.2c-0.46-0.27-0.79-0.7-0.93-1.21
		C12.93,25.59,13,25.05,13.27,24.59z M57.8,36.2l-4.17,22.55c-0.26,1.42-1.5,2.45-2.95,2.45H12.45c-1.48,0-2.75-1.1-2.97-2.56
		L6.16,36.2H6.5h51C57.5,36.2,57.8,36.2,57.8,36.2z M57.5,34.2h-51c-2.48,0-4.5-2.02-4.5-4.5s2.02-4.5,4.5-4.5h4.53
		c-0.05,0.47-0.02,0.95,0.11,1.43c0.28,1.03,0.94,1.9,1.86,2.43c0.62,0.36,1.3,0.54,1.99,0.54c0.35,0,0.7-0.05,1.04-0.14
		c1.03-0.28,1.9-0.94,2.43-1.86l1.38-2.39h24.31l1.38,2.39c0.53,0.92,1.4,1.59,2.43,1.86c0.34,0.09,0.69,0.14,1.04,0.14
		c0.69,0,1.38-0.18,1.99-0.54c0.92-0.53,1.59-1.4,1.86-2.43c0.13-0.47,0.15-0.95,0.11-1.43h4.53c2.48,0,4.5,2.02,4.5,4.5
		S59.98,34.2,57.5,34.2z"/>
	<path d="M17,56.2c1.65,0,3-1.35,3-3v-10c0-1.65-1.35-3-3-3s-3,1.35-3,3v10C14,54.85,15.35,56.2,17,56.2z M16,43.2
		c0-0.55,0.45-1,1-1s1,0.45,1,1v10c0,0.55-0.45,1-1,1s-1-0.45-1-1V43.2z"/>
	<path d="M27,56.2c1.65,0,3-1.35,3-3v-10c0-1.65-1.35-3-3-3s-3,1.35-3,3v10C24,54.85,25.35,56.2,27,56.2z M26,43.2
		c0-0.55,0.45-1,1-1s1,0.45,1,1v10c0,0.55-0.45,1-1,1s-1-0.45-1-1V43.2z"/>
	<path d="M37,56.2c1.65,0,3-1.35,3-3v-10c0-1.65-1.35-3-3-3s-3,1.35-3,3v10C34,54.85,35.35,56.2,37,56.2z M36,43.2
		c0-0.55,0.45-1,1-1s1,0.45,1,1v10c0,0.55-0.45,1-1,1s-1-0.45-1-1V43.2z"/>
	<path d="M47,56.2c1.65,0,3-1.35,3-3v-10c0-1.65-1.35-3-3-3s-3,1.35-3,3v10C44,54.85,45.35,56.2,47,56.2z M46,43.2
		c0-0.55,0.45-1,1-1s1,0.45,1,1v10c0,0.55-0.45,1-1,1s-1-0.45-1-1V43.2z"/>
</g>
</svg>
