<?xml version="1.0" encoding="utf-8"?>
<!-- Generator: Adobe Illustrator 24.0.1, SVG Export Plug-In . SVG Version: 6.00 Build 0)  -->
<svg version="1.1" id="Слой_1" xmlns="http://www.w3.org/2000/svg" xmlns:xlink="http://www.w3.org/1999/xlink" x="0px" y="0px"
	 viewBox="5 5 90 90" style="enable-background:new 0 0 100 125;" xml:space="preserve">
<path fill="#e2bc74" d="M41,90h48c0.55,0,1-0.45,1-1V21.08c0-0.55-0.45-1-1-1H60V11c0-0.55-0.45-1-1-1H11c-0.55,0-1,0.45-1,1v67.92
	c0,0.55,0.45,1,1,1h29V89C40,89.55,40.45,90,41,90z M55.15,79.92L42,87.24v-7.32H55.15z M88,22.08V88H44.75l14.73-8.2
	c0.04-0.02,0.06-0.06,0.1-0.09c0.06-0.04,0.11-0.08,0.16-0.13c0.04-0.05,0.07-0.1,0.11-0.16c0.03-0.05,0.06-0.11,0.09-0.17
	c0.02-0.07,0.03-0.13,0.04-0.2c0.01-0.04,0.03-0.08,0.03-0.13V22.08H88z M12,12h46v65.92H12V12z"/>
<path fill="#e2bc74" d="M68.67,33.74H79.5c0.55,0,1-0.45,1-1s-0.45-1-1-1H68.67c-0.55,0-1,0.45-1,1S68.11,33.74,68.67,33.74z"/>
<path fill="#e2bc74" d="M19.98,49.24H36.3c0.83,0,1.51-0.6,1.51-1.35s-0.67-1.35-1.51-1.35H19.98c-0.83,0-1.51,0.6-1.51,1.35
	S19.15,49.24,19.98,49.24z"/>
<path fill="#e2bc74" d="M30.41,49.24h16.32c0.83,0,1.51-0.6,1.51-1.35s-0.67-1.35-1.51-1.35H30.41c-0.83,0-1.51,0.6-1.51,1.35
	S29.58,49.24,30.41,49.24z"/>
<path fill="#e2bc74" d="M19.98,56.96H36.3c0.83,0,1.51-0.6,1.51-1.35c0-0.75-0.67-1.35-1.51-1.35H19.98c-0.83,0-1.51,0.6-1.51,1.35
	C18.48,56.36,19.15,56.96,19.98,56.96z"/>
<path fill="#e2bc74" d="M30.41,56.96h16.32c0.83,0,1.51-0.6,1.51-1.35c0-0.75-0.67-1.35-1.51-1.35H30.41c-0.83,0-1.51,0.6-1.51,1.35
	C28.91,56.36,29.58,56.96,30.41,56.96z"/>
<path fill="#e2bc74" d="M68.67,42.81H79.5c0.55,0,1-0.45,1-1s-0.45-1-1-1H68.67c-0.55,0-1,0.45-1,1S68.11,42.81,68.67,42.81z"/>
<path fill="#e2bc74" d="M68.67,51.89H79.5c0.55,0,1-0.45,1-1s-0.45-1-1-1H68.67c-0.55,0-1,0.45-1,1S68.11,51.89,68.67,51.89z"/>
<path fill="#e2bc74" d="M68.67,60.96H79.5c0.55,0,1-0.45,1-1s-0.45-1-1-1H68.67c-0.55,0-1,0.45-1,1S68.11,60.96,68.67,60.96z"/>
<path fill="#e2bc74" d="M68.67,70.04H79.5c0.55,0,1-0.45,1-1s-0.45-1-1-1H68.67c-0.55,0-1,0.45-1,1S68.11,70.04,68.67,70.04z"/>
<path fill="#e2bc74" d="M68.67,79.12H79.5c0.55,0,1-0.45,1-1s-0.45-1-1-1H68.67c-0.55,0-1,0.45-1,1S68.11,79.12,68.67,79.12z"/>
</svg>
