<?xml version="1.0" encoding="utf-8"?>
<!-- Generator: Adobe Illustrator 24.0.1, SVG Export Plug-In . SVG Version: 6.00 Build 0)  -->
<svg version="1.1" id="Слой_1" xmlns="http://www.w3.org/2000/svg" xmlns:xlink="http://www.w3.org/1999/xlink" x="0px" y="0px"
	 viewBox="5 10 90 80" style="enable-background:new 0 0 100 125;" xml:space="preserve">
<path fill="#e2bc74" d="M38.76,17l9.12,9.12L48.76,27H50h37c2.76,0,5,2.24,5,5v46c0,2.76-2.24,5-5,5H13c-2.76,0-5-2.24-5-5V22c0-2.76,2.24-5,5-5
	H38.76 M40,14H13c-4.42,0-8,3.58-8,8v56c0,4.42,3.58,8,8,8h74c4.42,0,8-3.58,8-8V32c0-4.42-3.58-8-8-8H50L40,14L40,14z M95,15.5
	c0-0.83-0.67-1.5-1.5-1.5h-47c-0.83,0-1.5,0.67-1.5,1.5c0,0.83,0.67,1.5,1.5,1.5h47C94.33,17,95,16.33,95,15.5z M95,20.5
	c0-0.83-0.67-1.5-1.5-1.5h-42c-0.83,0-1.5,0.67-1.5,1.5s0.67,1.5,1.5,1.5h42C94.33,22,95,21.33,95,20.5z"/>
</svg>
