<?xml version="1.0" encoding="utf-8"?>
<!-- Generator: Adobe Illustrator 24.0.1, SVG Export Plug-In . SVG Version: 6.00 Build 0)  -->
<svg version="1.1" id="Слой_1" xmlns="http://www.w3.org/2000/svg" xmlns:xlink="http://www.w3.org/1999/xlink" x="0px" y="0px"
	 viewBox="0 5 100 90" style="enable-background:new 0 0 100 125;" xml:space="preserve">
<g>
	<path fill="#e2bc74" d="M41,62H13c-0.83,0-1.5-0.67-1.5-1.5S12.17,59,13,59h28c0.83,0,1.5,0.67,1.5,1.5S41.83,62,41,62z"/>
</g>
<g>
	<path fill="#e2bc74" d="M31,68H13c-0.83,0-1.5-0.67-1.5-1.5S12.17,65,13,65h18c0.83,0,1.5,0.67,1.5,1.5S31.83,68,31,68z"/>
</g>
<path fill="#e2bc74" d="M90.98,22H9.02C5.7,22,3,24.7,3,28.02v46.97C3,78.3,5.7,81,9.02,81h81.97C94.3,81,97,78.3,97,74.98V28.02
	C97,24.7,94.3,22,90.98,22z M94,28.02V48H73.26c1.23-1,2.42-1.4,3.45-2.3c3.97-3.44,5.97-6.52,6.13-9.38
	c0.09-1.74-0.51-3.34-1.8-4.72c-1.09-1.17-2.5-1.79-4.09-1.79c-4.71,0-9.53,5.33-9.58,5.39C67.14,35.48,66,36.79,65,38.86V25h25.98
	C92.65,25,94,26.35,94,28.02z M65.27,47.51c0.6-5.83,3.93-9.87,4.34-10.35c0.59-0.68,4.46-4.35,7.35-4.35
	c0.76,0,1.37,0.26,1.89,0.83c0.72,0.77,1.05,1.59,1,2.5c-0.1,1.95-1.87,4.45-5.09,7.25C72,45.78,67.68,46.99,65.27,47.51z M9.02,25
	H62v13.88c-1-0.98-1.22-1.92-1.94-2.76c-3.58-4.13-6.77-6.14-9.72-6.14c-1.61,0-3.09,0.61-4.38,1.81c-1.2,1.12-1.82,2.58-1.79,4.22
	c0.1,4.67,5.33,9.49,5.39,9.53C49.83,45.78,51.13,47,53.2,48H6V28.02C6,26.35,7.35,25,9.02,25z M61.85,47.56
	c-5.83-0.6-9.87-3.93-10.35-4.34c-0.67-0.58-4.3-4.41-4.35-7.3c-0.01-0.79,0.25-1.41,0.83-1.95c0.72-0.67,1.48-1,2.32-1
	c1.97,0,4.54,1.76,7.43,5.1C60.12,40.82,61.33,45.14,61.85,47.56z M6,74.98V51h53.5l-8.7,8.58c-0.59,0.58-0.59,1.51-0.01,2.1
	c0.58,0.59,1.58,0.58,2.17,0L62,52.76V78H9.02C7.35,78,6,76.65,6,74.98z M90.98,78H65V52.87l8.95,8.81
	c0.29,0.29,0.65,0.43,1.03,0.43c0.39,0,0.77-0.15,1.06-0.45c0.58-0.59,0.56-1.5-0.03-2.08L67.2,51H94v23.98
	C94,76.65,92.65,78,90.98,78z"/>
</svg>
