<?xml version="1.0" encoding="utf-8"?>
<!-- Generator: Adobe Illustrator 24.0.1, SVG Export Plug-In . SVG Version: 6.00 Build 0)  -->
<svg version="1.1" id="Режим_изоляции"
	 xmlns="http://www.w3.org/2000/svg" xmlns:xlink="http://www.w3.org/1999/xlink" x="0px" y="0px" viewBox="5 5 90 90"
	 style="enable-background:new 0 0 100 125;" xml:space="preserve">
<style type="text/css">
	.st0{fill:#e2bc74;}
</style>
<path fill="#e2bc74" d="M71.7,7l-49.9,9.6c-0.5,0.1-0.8,0.5-0.8,1V92c0,0.6,0.5,1,1,1h56c0.6,0,1-0.4,1-1V17.6c0-0.5-0.4-1-1-1H32.4l38.5-7.4v1.2
	c0,0.6,0.4,1,1,1c0.6,0,1-0.4,1-1c0,0,0,0,0,0V8c0-0.6-0.4-1-1-1C71.9,7,71.8,7,71.7,7z M23,18.6h54V91H23V18.6z M34.1,69.6
	c-0.5,0-1,0.5-0.9,1.1s0.5,1,1.1,0.9h31.6c0.6,0,1-0.4,1-1s-0.4-1-1-1c0,0,0,0,0,0H34.2C34.2,69.6,34.1,69.6,34.1,69.6z M39.7,77.9
	c-0.5,0-1,0.5-1,1.1s0.5,1,1,0.9h20.4c0.5,0,1-0.4,1-1c0-0.6-0.4-1-1-1c0,0,0,0,0,0H39.7C39.8,77.9,39.8,77.9,39.7,77.9z"/>
<g>
	<g>
		<path class="st0" d="M42.8,41.1c-2.7,0-4.9-2.9-4.9-6.4c0-3.6,2.2-6.4,4.9-6.4c2.7,0,4.9,2.9,4.9,6.4
			C47.8,38.2,45.6,41.1,42.8,41.1z M42.8,29.3c-2.2,0-3.9,2.4-3.9,5.4c0,3,1.8,5.4,3.9,5.4c2.2,0,3.9-2.4,3.9-5.4
			C46.8,31.7,45,29.3,42.8,29.3z"/>
	</g>
	<g>
		<path class="st0" d="M55.7,59.7c-1.3,0-2.5-0.8-3.7-1.6c-0.7-0.5-1.5-1-2.3-1.3c-0.1,0-0.6-0.1-1.3-0.1c-0.7,0-1,0-1.1,0.1
			c-0.8,0.3-1.6,0.8-2.4,1.3c-1.3,0.8-2.4,1.5-3.8,1.5c-0.7,0-1.3-0.2-1.9-0.6c-1.4-0.9-2.2-2.4-2.3-4.3c-0.1-1.7,0.5-3.6,1.5-5.3
			c0.1-0.2,0.2-0.3,0.4-0.5c0-0.1,0.1-0.2,0.2-0.2c1.3-2.6,4.4-5.4,9.4-5.4l0.2,0c5.1,0.1,8.3,3,9.4,5.5c0,0.1,0.1,0.2,0.2,0.3
			c0.1,0.2,0.3,0.4,0.4,0.6c2.1,3.7,1.5,8-1.3,9.6C56.8,59.6,56.3,59.7,55.7,59.7z M48.3,55.7c0.7,0,1.4,0.1,1.7,0.1
			c1,0.4,1.7,0.9,2.5,1.4c1.1,0.7,2.1,1.4,3.2,1.4c0.4,0,0.8-0.1,1.2-0.3c2.3-1.3,2.7-5,0.9-8.2c-0.1-0.1-0.2-0.3-0.3-0.4
			c-0.1-0.2-0.2-0.3-0.3-0.5c-1-2.2-3.9-4.8-8.5-4.9l-0.2,0c-4.6,0-7.4,2.5-8.5,4.8c-0.1,0.1-0.2,0.3-0.3,0.4
			c-0.1,0.1-0.2,0.2-0.3,0.4c-1,1.5-1.4,3.2-1.4,4.7c0.1,1.6,0.7,2.8,1.8,3.5c0.4,0.3,0.9,0.4,1.3,0.4c1,0,2-0.6,3.2-1.3
			c0.8-0.5,1.6-1,2.6-1.4C47.2,55.8,47.7,55.7,48.3,55.7z"/>
	</g>
	<g>
		<path class="st0" d="M54,41.1c-2.7,0-4.9-2.9-4.9-6.4c0-3.6,2.2-6.4,4.9-6.4c2.7,0,4.9,2.9,4.9,6.4C58.9,38.2,56.7,41.1,54,41.1z
			 M54,29.3c-2.2,0-3.9,2.4-3.9,5.4c0,3,1.8,5.4,3.9,5.4c2.2,0,3.9-2.4,3.9-5.4C57.9,31.7,56.1,29.3,54,29.3z"/>
	</g>
	<g>
		<path class="st0" d="M62.5,49.3c-2.6,0-4.6-2.6-4.6-5.9c0-3.3,2-5.9,4.6-5.9c2.6,0,4.6,2.6,4.6,5.9C67,46.7,65,49.3,62.5,49.3z
			 M62.5,38.6c-2,0-3.6,2.1-3.6,4.9c0,2.7,1.6,4.9,3.6,4.9c2,0,3.6-2.1,3.6-4.9C66,40.7,64.5,38.6,62.5,38.6z"/>
	</g>
	<g>
		<path class="st0" d="M35,49.3c-2.6,0-4.6-2.6-4.6-5.9c0-3.3,2-5.9,4.6-5.9c2.6,0,4.6,2.6,4.6,5.9C39.6,46.7,37.6,49.3,35,49.3z
			 M35,38.6c-2,0-3.6,2.1-3.6,4.9c0,2.7,1.6,4.9,3.6,4.9c2,0,3.6-2.1,3.6-4.9C38.6,40.7,37,38.6,35,38.6z"/>
	</g>
</g>
</svg>
