<?xml version="1.0" encoding="utf-8"?>
<!-- Generator: Adobe Illustrator 24.0.1, SVG Export Plug-In . SVG Version: 6.00 Build 0)  -->
<svg version="1.1" id="Слой_1" xmlns="http://www.w3.org/2000/svg" xmlns:xlink="http://www.w3.org/1999/xlink" x="0px" y="0px"
	 viewBox="5 0 85 100" style="enable-background:new 0 0 100 125;" xml:space="preserve">
<g transform="translate(0,-952.36218)">
	<path d="M36.96,958.33c-8.25,0-14.98,6.74-14.98,15.01c0,8.26,6.73,15.01,14.98,15.01s14.98-6.74,14.98-15.01
		C51.94,965.07,45.21,958.33,36.96,958.33z M36.96,962.33c6.09,0,10.99,4.9,10.99,11s-4.9,11-10.99,11s-10.99-4.9-10.99-11
		C25.98,967.23,30.87,962.33,36.96,962.33z M23.98,992.34c-4.89,0-9.53,1.65-12.83,5.35c-3.29,3.69-5.15,9.23-5.15,16.66v16.01
		c0,1.05,0.95,2,2,2h24.97c1.06,0.02,2.03-0.94,2.03-2c0-1.06-0.97-2.02-2.03-2H10v-14.01c0-6.77,1.68-11.24,4.15-14.01
		c2.47-2.77,5.81-4,9.83-4h25.97c4.02,0,7.36,1.24,9.83,4s4.15,7.24,4.15,14.01c-0.01,1.06,0.94,2.03,2,2.03s2.01-0.97,2-2.03
		c0-7.43-1.86-12.97-5.15-16.66c-3.29-3.69-7.94-5.35-12.83-5.35L23.98,992.34z M88.25,1002.38c-1.27,0.02-2.6,0.49-3.68,1.47
		c-8.2,8.22-16.42,16.45-24.63,24.67c-3.89-3.86-7.73-7.81-11.64-11.63c-1.23-1.12-2.77-1.66-4.18-1.53s-2.66,0.84-3.56,1.78
		c-0.9,0.94-1.5,2.18-1.59,3.56c-0.09,1.38,0.45,2.86,1.56,4c5.83,6.3,11.98,12.73,17.95,19.04c0.74,0.79,2.16,0.79,2.9,0
		c10.21-10.76,20.84-21.17,30.96-31.98c1.12-1.13,1.65-2.66,1.56-4.03c-0.09-1.38-0.7-2.61-1.59-3.56
		c-0.89-0.95-2.11-1.64-3.53-1.78C88.6,1002.36,88.43,1002.38,88.25,1002.38L88.25,1002.38z M88.15,1006.35
		c0.08-0.01,0.17-0.01,0.25,0c0.32,0.03,0.7,0.24,1,0.56c0.3,0.32,0.48,0.73,0.5,1.06c0.02,0.34-0.03,0.59-0.41,0.97
		c-9.85,10.18-19.71,20.36-29.56,30.54c-5.5-5.86-11.09-11.67-16.54-17.54c-0.39-0.4-0.46-0.66-0.44-1c0.02-0.34,0.2-0.75,0.5-1.06
		c0.3-0.31,0.68-0.5,1-0.53c0.32-0.03,0.64,0,1.15,0.47l12.92,12.94c0.74,0.73,2.07,0.73,2.81,0l25.91-25.95
		C87.63,1006.47,87.9,1006.37,88.15,1006.35L88.15,1006.35z M7.81,1036.36c-1.05,0.05-1.95,1.05-1.9,2.09
		c0.05,1.05,1.05,1.96,2.09,1.91h34.96c1.06,0.02,2.03-0.94,2.03-2s-0.97-2.02-2.03-2C31.25,1036.36,19.51,1036.36,7.81,1036.36
		L7.81,1036.36z"/>
</g>
</svg>
